<svg width="319" height="320" viewBox="0 0 319 320" fill="none" xmlns="http://www.w3.org/2000/svg">
<path d="M300.675 228.195C291.369 268.487 285.501 288.937 271.73 302.505C244.535 329.3 211.447 322.093 184.637 294.882C172.82 282.887 165.207 275.13 156.107 245.531C156.107 245.531 155.217 221.421 124.792 192.924C96.4692 161.809 72.2288 160.69 72.2288 160.69C42.7767 151.145 35.5285 143.573 23.7259 131.593C-3.08383 104.382 -9.8288 71.1915 17.3821 44.3818C31.1529 30.814 51.6951 25.288 92.1288 16.5589C92.1288 16.5589 171.084 -2.42479 219.873 0.463931C255.105 2.57268 281.883 29.8749 281.883 29.8749L290.163 38.2789C290.163 38.2789 318.255 66.6365 318.673 100.742C319.203 149.602 300.667 228.203 300.675 228.195Z" fill="#FFEFEA"/>
</svg>
