<svg width="64" height="64" viewBox="0 0 64 64" fill="none" xmlns="http://www.w3.org/2000/svg">
<g clip-path="url(#clip0_146_4638)">
<path d="M56.3655 27.6197L46.6083 16.8827C46.2209 16.2311 45.0663 15.9123 40.1585 17.4915C36.6745 18.6125 32.198 20.4259 27.5544 22.5965C22.9107 24.7672 18.648 27.0395 15.5533 28.993C11.1945 31.7453 10.6981 32.836 10.9495 33.5511L12.9294 47.9236C12.9373 47.9821 12.9542 48.0389 12.979 48.0921C14.4708 51.2835 34.0308 42.253 36.2563 41.2128C38.4817 40.1725 57.955 30.9579 56.4629 27.7659C56.4381 27.7127 56.4052 27.6633 56.3655 27.6197ZM28.051 23.6593C37.5313 19.2278 44.1268 17.296 45.5066 17.522C44.7947 18.7249 39.0825 22.5463 29.6022 26.9778C20.122 31.4092 13.526 33.3413 12.1464 33.1159C12.8581 31.9124 18.5703 28.091 28.051 23.6593ZM49.9536 32.6151C46.2881 34.9087 41.2475 37.5847 35.7595 40.15C30.2715 42.7153 24.9855 44.8664 20.8748 46.2077C15.535 47.9501 14.2597 47.6528 14.0687 47.6002L12.2343 34.2843C13.1498 34.3218 14.719 34.0384 17.4936 33.1455C20.9781 32.0243 25.4546 30.2109 30.0982 28.0403C34.742 25.8696 39.004 23.5976 42.0988 21.644C44.5635 20.0878 45.7873 19.0658 46.3456 18.3392L55.3679 28.2673C55.2684 28.5334 54.5816 29.7195 49.9536 32.6151Z" fill="#9BB7D4"/>
<path d="M38.56 31.2967L39.3789 29.0401C39.4911 28.7358 39.3336 28.3989 39.029 28.2888C38.7241 28.1782 38.3883 28.3352 38.2776 28.6401L37.341 31.2198L35.5859 32.0402C35.3534 31.4113 35.1814 30.6817 35.143 29.8515C35.1277 29.5279 34.8535 29.2779 34.5296 29.2926C34.2098 29.3068 33.9555 29.5811 33.9705 29.9055C34.0168 30.9107 34.2314 31.7868 34.5192 32.538L32.8958 33.2969C32.5604 32.4449 32.307 31.4483 32.2545 30.3042C32.2391 29.9806 31.965 29.7306 31.6416 29.7451C31.3192 29.7592 31.0668 30.0339 31.0819 30.3583C31.1428 31.6824 31.4364 32.8259 31.8241 33.7978L30.4159 34.4561C29.4939 32.7523 28.6262 32.3894 28.4485 32.3319C28.3072 32.2859 28.1538 32.2956 28.0193 32.3584C25.2168 33.6684 24.7509 36.2896 24.896 37.4922C24.9116 37.617 24.966 37.7334 25.052 37.8246C25.8793 38.7011 28.1836 40.0126 30.9849 38.7031C31.1125 38.6435 31.2147 38.5394 31.2724 38.4108C31.3478 38.2409 31.654 37.3531 30.9147 35.518L32.3181 34.862C33.2713 36.6438 34.4362 37.5982 34.5159 37.6619C34.6958 37.8057 34.9338 37.8259 35.1293 37.7345C35.2085 37.6975 35.2803 37.642 35.3383 37.5695C35.5402 37.3172 35.4999 36.9482 35.2483 36.7452C35.2316 36.7317 34.2327 35.9036 33.3913 34.3597L35.014 33.6012C35.7655 34.958 36.6534 35.6871 36.7153 35.7364C36.8952 35.8802 37.1339 35.9008 37.3295 35.8093C37.4087 35.7723 37.4813 35.717 37.5391 35.6441C37.7408 35.3912 37.6997 35.022 37.4459 34.82C37.4336 34.8102 36.7133 34.2197 36.0803 33.1035L37.837 32.2823L40.3876 33.208C40.5396 33.2631 40.7 33.2516 40.836 33.188C40.9721 33.1244 41.0837 33.0088 41.139 32.8567C41.2496 32.5518 41.0926 32.216 40.7877 32.1053L38.56 31.2967ZM30.226 37.7551C28.0548 38.6327 26.5192 37.5544 26.0528 37.1547C26.0464 36.5439 26.2021 34.6568 28.2504 33.555C28.5212 33.7573 29.0603 34.2778 29.6303 35.4973C30.2011 36.7184 30.2449 37.4451 30.226 37.7551Z" fill="#9BB7D4"/>
</g>
<defs>
<clipPath id="clip0_146_4638">
<rect width="48" height="48" fill="white" transform="translate(0 20.3262) rotate(-25.0534)"/>
</clipPath>
</defs>
</svg>
