<svg width="34" height="34" viewBox="0 0 34 34" fill="none" xmlns="http://www.w3.org/2000/svg">
<g clip-path="url(#clip0_146_4628)">
<path d="M18.823 16.3177C18.9311 16.3945 19.0809 16.3692 19.1577 16.2612C19.4419 15.8614 19.9978 15.7668 20.397 16.0506C20.7961 16.3343 20.8895 16.8904 20.6053 17.2902C20.5285 17.3982 20.5538 17.5481 20.6619 17.6249C20.7699 17.7017 20.9197 17.6764 20.9965 17.5683C21.4341 16.9527 21.2899 16.0964 20.6751 15.6593C20.0603 15.2223 19.2041 15.3675 18.7665 15.9831C18.6897 16.0911 18.715 16.2409 18.823 16.3177Z" fill="#BF29FF"/>
<path d="M14.6004 13.3158C14.7084 13.3926 14.8583 13.3672 14.935 13.2592C15.2193 12.8594 15.7752 12.7649 16.1743 13.0486C16.5735 13.3323 16.6669 13.8884 16.3826 14.2883C16.3059 14.3963 16.3312 14.5461 16.4392 14.6229C16.5472 14.6997 16.6971 14.6744 16.7739 14.5664C17.2115 13.9508 17.0673 13.0944 16.4524 12.6574C15.8376 12.2203 14.9814 12.3655 14.5438 12.9811C14.467 13.0891 14.4924 13.239 14.6004 13.3158Z" fill="#BF29FF"/>
<path d="M10.0708 12.2585C9.72518 12.0076 9.35641 11.7523 8.96268 11.4939C8.85183 11.4213 8.70302 11.4523 8.6303 11.5631C8.55769 11.6739 8.58869 11.8251 8.69942 11.8954C9.05095 12.1257 9.38132 12.3539 9.69383 12.5789C8.9931 13.1969 8.40888 13.8276 7.93615 14.4667C7.70356 14.4044 7.47496 14.3525 7.25378 14.3162C7.12293 14.2948 6.99947 14.3833 6.97796 14.5141C6.96267 14.6076 7.00355 14.6973 7.07595 14.7488C7.1048 14.7693 7.13867 14.7837 7.17585 14.7899C7.32775 14.8148 7.48407 14.8481 7.64302 14.8869C6.44853 16.7041 6.16878 18.5833 6.85338 20.4394C7.17216 21.1859 7.82361 22.1853 8.75659 22.8485C9.61803 23.4609 10.7195 23.7868 12.0207 23.3626C12.0769 26.2133 14.9225 27.1753 16.4917 27.2829C18.4615 27.3191 20.1416 26.4374 21.4645 24.7122C21.5533 24.8495 21.636 24.9861 21.7094 25.1213C21.7275 25.1544 21.7522 25.1816 21.7811 25.2021C21.8535 25.2536 21.9516 25.2627 22.0349 25.2175C22.1514 25.1542 22.1944 25.0086 22.1312 24.892C22.0242 24.6951 21.9001 24.4963 21.7649 24.2972C22.213 23.6406 22.6166 22.8816 22.9701 22.0167C23.2853 22.2378 23.6094 22.4749 23.9425 22.7312C24.0451 22.8112 24.1982 22.7922 24.2791 22.6872C24.3598 22.5821 24.3401 22.4314 24.2351 22.3506C23.8618 22.0636 23.4994 21.7992 23.1489 21.5552C23.1703 21.498 23.1934 21.4443 23.2144 21.3863C23.5428 20.4775 23.7867 19.5632 23.9669 18.7347C24.4636 18.295 28.168 14.9604 28.0864 13.412C28.0725 13.1493 27.9568 12.9334 27.7518 12.7876C26.4056 11.8307 23.9347 12.5376 23.4338 12.6955C22.9453 12.4945 20.2409 11.3125 18.345 9.08022C18.3298 8.56047 18.1871 5.98846 16.8389 5.03009C16.6339 4.88431 16.3919 4.84604 16.1393 4.91923C14.6501 5.35094 12.7179 9.94544 12.4659 10.559C11.7426 11.0015 10.9593 11.5323 10.2089 12.1411C10.1609 12.18 10.1178 12.2195 10.0708 12.2585ZM10.0994 12.8762C12.6698 14.8038 13.8228 16.431 14.0937 16.8465C14.0746 16.865 14.0543 16.882 14.036 16.9017C13.9082 17.0398 13.812 17.199 13.7477 17.369C12.9329 16.8238 10.5722 15.3139 8.43338 14.6149C8.91984 13.986 9.49252 13.4043 10.0994 12.8762ZM16.2915 19.6087L15.5305 19.6798C15.2579 19.7053 14.9991 19.6315 14.7903 19.4863C14.7888 19.4852 14.7882 19.4835 14.7866 19.4824C14.784 19.4805 14.7809 19.4804 14.7782 19.4786C14.569 19.329 14.4119 19.1063 14.3456 18.8375L14.1627 18.0954C14.0866 17.787 14.171 17.4626 14.3883 17.2277C14.5992 16.9998 14.8925 16.8977 15.1927 16.9475C15.5211 17.0021 15.8847 17.1659 16.2441 17.4214C16.6035 17.6769 16.8777 17.9665 17.0372 18.2587C17.1829 18.5259 17.1828 18.8364 17.0369 19.1105C16.8864 19.3929 16.6078 19.5792 16.2915 19.6087ZM16.5127 26.8034C16.4705 26.8004 12.3009 26.4731 12.5074 23.0293C12.5173 22.8641 12.3284 22.7298 12.1756 22.7934C8.98996 24.1205 7.31131 20.2897 7.29933 20.2621C6.58074 18.3133 7.08818 16.5423 8.13398 15.0239C10.4115 15.7312 13.0924 17.504 13.6567 17.8871C13.658 17.9948 13.6701 18.1032 13.6965 18.2103L13.8794 18.9524C13.9545 19.2568 14.1128 19.5175 14.3232 19.7201L14.1244 19.9997C13.8147 20.4354 13.2056 20.5362 12.7668 20.2243C12.6588 20.1475 12.509 20.1728 12.4322 20.2808C12.3554 20.3888 12.3807 20.5387 12.4887 20.6155C12.9029 20.9099 13.4188 20.9567 13.8594 20.7868C13.8437 21.2587 14.0574 21.7306 14.4716 22.025C14.5796 22.1018 14.7295 22.0765 14.8062 21.9685C14.883 21.8604 14.8577 21.7106 14.7497 21.6338C14.3109 21.3219 14.2059 20.7135 14.5157 20.2778L14.715 19.9974C14.9729 20.1255 15.2675 20.1865 15.5752 20.1578L16.3362 20.0867C16.446 20.0765 16.5523 20.0523 16.6545 20.0182C17.2021 20.4254 19.7602 22.3766 21.1763 24.2971C20.0879 25.7819 18.585 26.8415 16.5127 26.8034ZM21.4643 23.8797C20.1014 22.0881 17.8972 20.3527 17.1139 19.7619C17.2534 19.6453 17.3721 19.5022 17.4606 19.3361C17.4732 19.3123 17.4825 19.2876 17.4937 19.2634C17.9752 19.3827 19.8912 19.9371 22.5585 21.7331C22.2594 22.4805 21.8983 23.2131 21.4643 23.8797ZM16.273 5.38029C16.386 5.34749 16.4748 5.36014 16.5608 5.42131C17.8315 6.32462 17.8664 9.14319 17.8667 9.17155C17.8671 9.2272 17.8868 9.28102 17.9224 9.32374C20.0835 11.9113 23.2078 13.1243 23.3396 13.1749C23.3919 13.1948 23.4496 13.1959 23.5026 13.1779C23.5294 13.1688 26.2029 12.2755 27.4737 13.1788C27.5597 13.24 27.6008 13.3197 27.607 13.4373C27.6593 14.4271 25.4357 16.7183 24.1261 17.9405C24.3879 16.5186 24.4521 15.5009 24.4531 15.4836C24.4608 15.3515 24.3601 15.2378 24.2277 15.2298C24.0953 15.222 23.9817 15.3229 23.9738 15.4552C23.9704 15.5129 23.7782 18.4171 22.7343 21.2729C20.0602 19.4857 18.1578 18.9302 17.6178 18.7986C17.6403 18.5348 17.5887 18.2674 17.4586 18.0288C17.2618 17.6679 16.9466 17.3319 16.5222 17.0302C16.0977 16.7285 15.6768 16.5413 15.2713 16.474C15.0032 16.4295 14.7337 16.4686 14.4919 16.5766C14.1903 16.1101 13.0413 14.4968 10.4758 12.559C12.829 10.6334 15.5076 9.49695 15.561 9.47473C15.6834 9.4238 15.7412 9.28334 15.6904 9.16092C15.6397 9.03847 15.499 8.98089 15.3766 9.03149C15.3606 9.03817 14.4206 9.43318 13.1636 10.1478C13.8874 8.50928 15.3206 5.65633 16.273 5.38029Z" fill="#BF29FF"/>
<path d="M12.1414 18.0347L11.6535 17.6879C11.5455 17.6111 11.3956 17.6364 11.3188 17.7444C11.242 17.8525 11.2674 18.0023 11.3754 18.0791L11.8633 18.4259C11.9713 18.5027 12.1211 18.4774 12.1979 18.3694C12.2747 18.2613 12.2494 18.1115 12.1414 18.0347Z" fill="#BF29FF"/>
<path d="M10.3061 18.54L9.81829 18.1933C9.71027 18.1165 9.56042 18.1418 9.48363 18.2498C9.40684 18.3578 9.43216 18.5077 9.54019 18.5845L10.028 18.9312C10.136 19.008 10.2858 18.9827 10.3626 18.8747C10.4394 18.7666 10.4141 18.6168 10.3061 18.54Z" fill="#BF29FF"/>
<path d="M10.2879 20.6319L9.79998 20.285C9.69196 20.2083 9.54211 20.2336 9.46532 20.3416C9.38852 20.4496 9.41385 20.5995 9.52187 20.6763L10.0098 21.0231C10.1178 21.0999 10.2676 21.0746 10.3444 20.9665C10.4212 20.8585 10.3959 20.7087 10.2879 20.6319Z" fill="#BF29FF"/>
<path d="M16.859 21.6831L17.3469 22.0299C17.4549 22.1067 17.6048 22.0814 17.6816 21.9734C17.7584 21.8653 17.7331 21.7155 17.625 21.6387L17.1371 21.2919C17.0291 21.2151 16.8793 21.2404 16.8025 21.3484C16.7257 21.4565 16.751 21.6063 16.859 21.6831Z" fill="#BF29FF"/>
<path d="M16.8457 23.7778L17.3336 24.1247C17.4416 24.2014 17.5915 24.1761 17.6683 24.0681C17.7451 23.9601 17.7197 23.8102 17.6117 23.7334L17.1238 23.3866C17.0158 23.3098 16.866 23.3351 16.7892 23.4432C16.7124 23.5512 16.7377 23.701 16.8457 23.7778Z" fill="#BF29FF"/>
<path d="M15.6422 24.438L15.1544 24.0912C15.0463 24.0144 14.8965 24.0397 14.8197 24.1478C14.7429 24.2558 14.7682 24.4056 14.8762 24.4824L15.3641 24.8292C15.4722 24.906 15.622 24.8807 15.6988 24.7727C15.7756 24.6647 15.7503 24.5148 15.6422 24.438Z" fill="#BF29FF"/>
</g>
<defs>
<clipPath id="clip0_146_4628">
<rect width="24" height="24" fill="white" transform="translate(13.9053) rotate(35.4077)"/>
</clipPath>
</defs>
</svg>
