<svg width="33" height="33" viewBox="0 0 33 33" fill="none" xmlns="http://www.w3.org/2000/svg">
<g clip-path="url(#clip0_146_4621)">
<path d="M16.8054 20.3508L16.4086 22.0947C16.2466 22.6533 16.3793 23.2481 16.7634 23.6857C17.1573 24.1345 17.7421 24.3369 18.3679 24.241C18.9967 24.1449 19.5064 23.6692 19.6665 23.0299C19.7276 22.787 20.0005 22.6368 20.2383 22.7151C20.6832 22.8617 21.1527 22.8151 21.5369 22.6036C21.6933 22.5175 21.8355 22.4041 21.9563 22.2654C22.3719 21.7879 22.5136 21.1855 22.345 20.6126C22.1807 20.0541 21.749 19.6239 21.2037 19.4663L19.5047 18.8646C18.9501 18.6684 18.3367 18.7185 17.8216 19.0021C17.3063 19.2858 16.936 19.7773 16.8054 20.3508ZM18.0531 19.4226C18.4483 19.205 18.919 19.1666 19.3445 19.317L21.0568 19.923C21.4573 20.0391 21.7666 20.3476 21.8846 20.7482C22.006 21.1606 21.9001 21.5988 21.5943 21.9502C21.3035 22.2838 20.8305 22.4049 20.3887 22.2593C20.1453 22.1789 19.8768 22.2038 19.6523 22.3274C19.4278 22.451 19.2632 22.6645 19.2009 22.9131C19.0877 23.3645 18.732 23.6996 18.2952 23.7666C17.8347 23.8371 17.4078 23.6922 17.1241 23.3691C16.8487 23.0552 16.7535 22.6288 16.8731 22.2148L17.2734 20.4574C17.3736 20.0174 17.6578 19.6402 18.0531 19.4226Z" fill="#24E9FF"/>
<path d="M18.5764 17.8232C18.606 17.8107 18.6346 17.7968 18.6623 17.7815C18.8573 17.6741 19.0082 17.498 19.1018 17.267C19.2536 16.8918 19.2338 16.4248 19.0471 15.9856C18.7164 15.2068 17.9916 14.7933 17.3969 15.0442C17.1603 15.1444 16.9787 15.3365 16.8717 15.6003C16.7198 15.9755 16.7397 16.4427 16.9264 16.8819C17.2572 17.6607 17.982 18.074 18.5764 17.8232ZM17.368 16.6942C17.2329 16.3762 17.2137 16.0346 17.3166 15.7805C17.3533 15.6899 17.4217 15.573 17.5442 15.5056C17.5568 15.4986 17.5699 15.4922 17.5836 15.4864C17.9192 15.3448 18.3871 15.6594 18.6054 16.1733C18.7405 16.4913 18.7597 16.8328 18.6568 17.0869C18.6166 17.1866 18.5382 17.318 18.3897 17.381C18.0543 17.5226 17.5865 17.2081 17.368 16.6942Z" fill="#24E9FF"/>
<path d="M20.653 18.2193C20.7981 18.2162 20.9374 18.1782 21.0658 18.1075C21.1574 18.0571 21.2435 17.99 21.3221 17.9071C21.5883 17.6268 21.7329 17.205 21.7189 16.7498C21.6941 15.9417 21.1888 15.3191 20.5687 15.3322C20.3197 15.3375 20.0886 15.4455 19.8995 15.6446C19.6334 15.925 19.4889 16.3467 19.5028 16.8018C19.5277 17.61 20.0329 18.2326 20.653 18.2193ZM19.9826 16.787C19.9727 16.4639 20.0717 16.1603 20.2477 15.975C20.2828 15.9379 20.3297 15.897 20.3869 15.8654C20.4418 15.8352 20.5062 15.8137 20.579 15.8121C20.9207 15.8049 21.223 16.2411 21.2391 16.7647C21.249 17.0877 21.15 17.3913 20.974 17.5766C20.9051 17.6491 20.7921 17.7362 20.6427 17.7394C20.3009 17.7468 19.9987 17.3106 19.9826 16.787Z" fill="#24E9FF"/>
<path d="M15.671 19.1561C15.9162 19.2006 16.1457 19.1672 16.3408 19.0598C16.3685 19.0445 16.3956 19.0277 16.4219 19.0095C16.9519 18.6414 16.9902 17.8079 16.5089 17.1118C16.2376 16.7191 15.8536 16.4526 15.4552 16.3803C15.1752 16.3295 14.9161 16.3801 14.7043 16.5268C14.1744 16.8951 14.1362 17.7286 14.6174 18.4245C14.8887 18.8172 15.2728 19.0837 15.671 19.1561ZM14.9782 16.921C14.9905 16.9125 15.0029 16.9049 15.0155 16.898C15.138 16.8305 15.2734 16.8351 15.3696 16.8526C15.6393 16.9015 15.9177 17.1005 16.1141 17.3847C16.4316 17.844 16.4472 18.4075 16.1481 18.6153C16.0154 18.7069 15.8627 18.703 15.7568 18.6837C15.487 18.6348 15.2087 18.4359 15.0122 18.1516C14.6948 17.6924 14.6792 17.1288 14.9782 16.921Z" fill="#24E9FF"/>
<path d="M15.0243 21.3744C15.1364 21.3523 15.2392 21.3154 15.3308 21.2649C15.4592 21.1943 15.5657 21.097 15.646 20.976C15.9888 20.4591 15.7329 19.6993 15.0633 19.246C14.6862 18.9909 14.2525 18.8875 13.8733 18.9623C13.6041 19.0155 13.3891 19.1534 13.2515 19.3608C12.9087 19.8777 13.1647 20.6377 13.8342 21.0908C14.2114 21.346 14.6451 21.4494 15.0243 21.3744ZM13.6515 19.6261C13.6918 19.5654 13.7444 19.5225 13.7992 19.4923C13.8565 19.4608 13.9162 19.4432 13.9663 19.4333C14.217 19.3837 14.5265 19.4624 14.7941 19.6435C15.228 19.9371 15.435 20.4258 15.246 20.7106C15.1634 20.8351 15.0294 20.884 14.9312 20.9036C14.6805 20.9531 14.371 20.8745 14.1034 20.6933C13.6695 20.3997 13.4626 19.911 13.6515 19.6261Z" fill="#24E9FF"/>
<path d="M12.6008 27.5252C13.1008 28.2589 14.0643 28.4892 14.8421 28.0609L27.0174 21.3577C27.7951 20.9295 28.1158 19.9922 27.7632 19.1773L23.8087 10.036C23.7818 9.97404 23.7301 9.92616 23.6661 9.90425C23.6021 9.88235 23.5319 9.88849 23.4727 9.9211L23.2558 10.0405L23.1208 9.79528C21.8201 7.43283 18.84 6.56903 16.4776 7.86965C16.3609 7.93391 16.2424 8.00679 16.1182 8.09081C14.5748 7.27773 12.759 7.29019 11.2306 8.13165C9.27431 9.20873 8.24837 11.3734 8.64215 13.5572C6.96518 14.738 6.39573 16.9882 7.29878 18.8258L7.07384 18.9497C7.0146 18.9823 6.97188 19.0383 6.95618 19.1041C6.94048 19.1699 6.95325 19.2392 6.99124 19.2951L12.6008 27.5252ZM27.3227 19.368C27.5764 19.9544 27.3457 20.629 26.7859 20.9372L14.6106 27.6404C14.0508 27.9486 13.3573 27.7829 12.9975 27.2549L7.53652 19.2429L23.473 10.4689L27.3227 19.368ZM9.03858 13.8685C9.12214 13.8145 9.16364 13.7145 9.143 13.6172C8.71262 11.5883 9.64471 9.55275 11.4622 8.55213C12.888 7.76714 14.5903 7.77811 16.0157 8.5815C16.0968 8.62711 16.1972 8.62092 16.2728 8.56784C16.428 8.45721 16.5707 8.36638 16.7091 8.29013C18.8397 7.11713 21.5273 7.89623 22.7003 10.0268L22.8353 10.272L7.71947 18.5942C6.91295 16.9277 7.4678 14.885 9.03858 13.8685Z" fill="#24E9FF"/>
</g>
<defs>
<clipPath id="clip0_146_4621">
<rect width="24" height="24" fill="white" transform="translate(0 11.5752) rotate(-28.8355)"/>
</clipPath>
</defs>
</svg>
