<svg width="16" height="14" viewBox="0 0 16 14" fill="none" xmlns="http://www.w3.org/2000/svg">
<path d="M1.12326 0.125H14.8733C15.0759 0.125 15.2702 0.205481 15.4134 0.348738C15.5567 0.491995 15.6372 0.686293 15.6372 0.888889V13.1111C15.6372 13.3137 15.5567 13.508 15.4134 13.6513C15.2702 13.7945 15.0759 13.875 14.8733 13.875H1.12326C0.920668 13.875 0.72637 13.7945 0.583113 13.6513C0.439856 13.508 0.359375 13.3137 0.359375 13.1111V0.888889C0.359375 0.686293 0.439856 0.491995 0.583113 0.348738C0.72637 0.205481 0.920668 0.125 1.12326 0.125ZM8.0441 6.75785L3.14604 2.59847L2.15681 3.76264L8.05403 8.76993L13.8451 3.75882L12.8459 2.60306L8.04486 6.75785H8.0441Z" fill="#040937" fill-opacity="0.7"/>
</svg>
