<svg width="16" height="16" viewBox="0 0 16 16" fill="none" xmlns="http://www.w3.org/2000/svg">
<g clip-path="url(#clip0_347_23315)">
<path d="M13.6293 5.30066C13.4572 5.1527 13.2843 5.01135 13.1109 4.87598L11.089 6.89788C11.2122 7.24248 11.2796 7.61345 11.2796 7.99985C11.2796 9.80913 9.80759 11.2811 7.99831 11.2811C7.61191 11.2811 7.24094 11.2138 6.89634 11.0905L5.37891 12.608C6.26503 12.9715 7.14394 13.1561 7.99831 13.1561C9.01884 13.1561 10.0743 12.8937 11.1353 12.3763C11.9685 11.9699 12.8076 11.4055 13.6293 10.699C15.0186 9.50448 15.8744 8.32329 15.9101 8.27357C16.0278 8.11007 16.0278 7.88966 15.9101 7.72613C15.8743 7.67641 15.0186 6.49523 13.6293 5.30066Z" fill="#040937"/>
<path d="M7.99916 10.3436C9.2915 10.3436 10.3429 9.29223 10.3429 7.99989C10.3429 7.88745 10.3345 7.77695 10.3191 7.6687L7.66797 10.3198C7.77625 10.3352 7.88672 10.3436 7.99916 10.3436Z" fill="#040937"/>
<path d="M15.8627 0.137273C15.6797 -0.0457578 15.3829 -0.0457578 15.1998 0.137273L11.5171 3.82002C11.3903 3.75102 11.2636 3.6853 11.137 3.62359C10.076 3.10609 9.02056 2.84371 8.00002 2.84371C6.97949 2.84371 5.92402 3.10609 4.86302 3.62355C4.02984 4.02996 3.19071 4.59427 2.36899 5.30077C0.979805 6.49534 0.123992 7.67652 0.0882422 7.72624C-0.0294141 7.88974 -0.0294141 8.11015 0.0882422 8.27368C0.123992 8.3234 0.979773 9.50462 2.36899 10.6991C2.79471 11.0652 3.22512 11.3926 3.65693 11.6801L0.137336 15.1998C-0.0457266 15.3828 -0.0457266 15.6796 0.137336 15.8627C0.228867 15.9542 0.348805 16 0.468773 16C0.588742 16 0.708711 15.9542 0.800211 15.8626L15.8627 0.800148C16.0458 0.617117 16.0458 0.320305 15.8627 0.137273ZM4.71877 7.99996C4.71877 6.19068 6.19074 4.71871 8.00002 4.71871C8.73599 4.71871 9.41612 4.96227 9.96409 5.37302L9.29159 6.04552C8.92099 5.79977 8.47706 5.65621 8.00002 5.65621C6.70768 5.65621 5.65627 6.70762 5.65627 7.99996C5.65627 8.47696 5.79984 8.9209 6.04559 9.29152L5.37309 9.96402C4.96234 9.41605 4.71877 8.73593 4.71877 7.99996Z" fill="#040937"/>
</g>
<defs>
<clipPath id="clip0_347_23315">
<rect width="16" height="16" fill="white"/>
</clipPath>
</defs>
</svg>
