<svg width="24" height="24" viewBox="0 0 24 24" fill="none" xmlns="http://www.w3.org/2000/svg">
<path d="M19.6263 12.1497C19.6263 11.4942 19.5731 11.0158 19.458 10.5198H11.9727V13.4784H16.3664C16.2778 14.2137 15.7995 15.321 14.7364 16.0651L14.7215 16.1641L17.0883 17.9976L17.2522 18.0139C18.7581 16.6232 19.6263 14.5769 19.6263 12.1497Z" fill="#4285F4"/>
<path d="M11.9737 19.945C14.1262 19.945 15.9333 19.2363 17.2533 18.0139L14.7375 16.065C14.0643 16.5345 13.1607 16.8623 11.9737 16.8623C9.86543 16.8623 8.07605 15.4716 7.43819 13.5493L7.34469 13.5573L4.88375 15.4618L4.85156 15.5513C6.16259 18.1556 8.85553 19.945 11.9737 19.945Z" fill="#34A853"/>
<path d="M7.43701 13.5493C7.2687 13.0532 7.1713 12.5217 7.1713 11.9725C7.1713 11.4233 7.2687 10.8918 7.42815 10.3957L7.42369 10.2901L4.93191 8.35492L4.85038 8.3937C4.31005 9.47443 4 10.688 4 11.9725C4 13.257 4.31005 14.4705 4.85038 15.5513L7.43701 13.5493Z" fill="#FBBC05"/>
<path d="M11.9737 7.08269C13.4707 7.08269 14.4806 7.72934 15.0564 8.26974L17.3064 6.07285C15.9245 4.7884 14.1262 4 11.9737 4C8.85553 4 6.16259 5.78937 4.85156 8.39371L7.42933 10.3957C8.07605 8.47347 9.86543 7.08269 11.9737 7.08269Z" fill="#EB4335"/>
</svg>
