<svg width="64" height="64" viewBox="0 0 64 64" fill="none" xmlns="http://www.w3.org/2000/svg">
<g clip-path="url(#clip0_1240_11928)">
<path d="M14.0535 8.41167C8.94266 12.2999 5.65234 17.9446 4.7879 24.3073C3.92346 30.6701 5.58848 36.9886 9.47683 42.0988C13.3652 47.209 19.0097 50.5 25.3732 51.3645C31.1352 52.1474 36.8578 50.8493 41.6832 47.7106C41.5778 48.388 41.7334 49.1042 42.1799 49.6911C42.6018 50.2457 43.2146 50.6031 43.9054 50.697C43.956 50.7039 44.0055 50.6986 44.0551 50.7026L41.8555 52.3754C40.6857 51.3715 38.931 51.2823 37.6562 52.2521C36.1901 53.3675 35.9054 55.468 37.0201 56.9341C37.4959 57.5603 38.1581 57.9859 38.9029 58.1606C38.8724 58.9251 39.106 59.676 39.5826 60.3023C40.698 61.7685 42.7984 62.0538 44.2646 60.9384C45.5409 59.9674 45.9221 58.2495 45.2554 56.8436L52.4031 51.4058C53.572 52.4216 55.3359 52.5157 56.6162 51.5416C57.3497 50.9842 57.7874 50.1805 57.9026 49.3322C58.0179 48.4838 57.8104 47.5932 57.2523 46.8596C56.7765 46.2334 56.1144 45.8079 55.3696 45.6331C55.4 44.8686 55.1665 44.1178 54.6899 43.4914C53.5751 42.0254 51.4747 41.74 50.0078 42.8553C48.7324 43.8251 48.3509 45.5407 49.007 46.9354L46.8058 48.6094C46.8154 48.5598 46.834 48.5122 46.8407 48.4622C46.9307 47.7997 46.7689 47.1032 46.3331 46.5311C45.9111 45.9765 45.2984 45.6191 44.6076 45.5253C44.5909 45.523 44.5744 45.525 44.5584 45.5236C48.8699 41.711 51.6477 36.5422 52.4305 30.7808C53.2949 24.4181 51.6299 18.0995 47.7416 12.9886C43.8534 7.87777 38.2087 4.58744 31.846 3.72301C25.4832 2.85857 19.1644 4.52328 14.0535 8.41167ZM50.3531 47.6706C50.6605 47.4361 50.7202 46.997 50.4865 46.6891C49.8385 45.8373 50.0043 44.6172 50.856 43.9693C51.7077 43.3213 52.9278 43.487 53.5758 44.3388C53.9487 44.8289 54.0668 45.4511 53.8928 46.0504C53.832 46.2647 53.8753 46.4916 54.0089 46.6673C54.1426 46.8431 54.352 46.9456 54.5725 46.9438C55.1936 46.9378 55.7648 47.216 56.1375 47.706C56.7855 48.5577 56.6198 49.7778 55.768 50.4258C54.9163 51.0738 53.6962 50.908 53.0482 50.0563L53.0369 50.0414C52.8025 49.7333 52.3641 49.6737 52.056 49.9081L43.9084 56.1079C43.758 56.2217 43.6697 56.3884 43.6457 56.5653C43.6205 56.7505 43.666 56.946 43.7858 57.1035C44.4338 57.9553 44.2681 59.1754 43.4163 59.8234C42.5646 60.4713 41.3445 60.3056 40.6965 59.4539C40.3237 58.9637 40.2059 58.3388 40.3795 57.7422C40.4409 57.5287 40.3971 57.301 40.2634 57.1253C40.1297 56.9496 39.9204 56.847 39.6998 56.8488C39.0788 56.8548 38.5075 56.5766 38.1348 56.0866C37.4868 55.2349 37.6526 54.0148 38.5043 53.3668C39.356 52.7188 40.5761 52.8846 41.2241 53.7363C41.4585 54.0444 41.8969 54.1039 42.205 53.8696L50.3531 47.6706ZM45.2188 47.3786C45.6229 47.9089 45.5196 48.6698 44.9885 49.0738C44.7317 49.2692 44.4137 49.3532 44.0932 49.3096C43.7726 49.2661 43.4886 49.1003 43.2932 48.8434C43.0912 48.578 43.0164 48.2548 43.058 47.9482C43.0997 47.6416 43.2579 47.3502 43.5235 47.1481C43.781 46.9528 44.0983 46.8687 44.4189 46.9122C44.7394 46.9558 45.0235 47.1211 45.2188 47.3786ZM46.6273 13.8361C50.2883 18.6491 51.8571 24.5993 51.0429 30.5922C50.2288 36.5845 47.13 41.9011 42.317 45.5622C37.504 49.2232 31.5538 50.792 25.5615 49.9779C19.5693 49.1639 14.2526 46.065 10.5908 41.2519C6.9297 36.4396 5.36098 30.4887 6.17508 24.4965C6.98918 18.5042 10.088 13.1875 14.9011 9.52577C19.7141 5.86473 25.6643 4.29592 31.6572 5.11011C37.6489 5.92413 42.9656 9.02281 46.6273 13.8361Z" fill="#9572FB"/>
<path d="M16.4726 11.5905C7.67671 18.2823 5.9648 30.8829 12.6566 39.6786C15.8981 43.9394 20.6053 46.6834 25.911 47.4042C31.2166 48.125 36.4846 46.7362 40.7454 43.4947C45.0062 40.2533 47.7502 35.5459 48.4709 30.241C49.1917 24.936 47.8029 19.6673 44.5615 15.4065C41.3199 11.1457 36.6127 8.40177 31.3077 7.68104C26.0028 6.96031 20.7341 8.34907 16.4726 11.5905ZM43.4473 16.2543C46.4631 20.2174 47.754 25.1181 47.0836 30.0526C46.4132 34.9872 43.8616 39.3658 39.8978 42.3808C35.9347 45.3965 31.034 46.6875 26.0994 46.017C21.1649 45.3466 16.7863 42.795 13.7713 38.8312C10.6592 34.7406 9.50129 29.7646 10.144 25.0341C10.7867 20.3035 13.2302 15.8168 17.3208 12.7047C21.2847 9.68912 26.1847 8.39804 31.1192 9.06845C36.0538 9.73885 40.4316 12.2911 43.4473 16.2543Z" fill="#9572FB"/>
</g>
<defs>
<clipPath id="clip0_1240_11928">
<rect width="56" height="56" fill="white" transform="translate(0.485352 55.9766) rotate(-82.2632)"/>
</clipPath>
</defs>
</svg>
