<svg width="70" height="70" viewBox="0 0 70 70" fill="none" xmlns="http://www.w3.org/2000/svg">
<g clip-path="url(#clip0_97_4696)">
<path d="M61.1981 8.80172C55.522 3.1256 47.9767 0 39.9502 0C31.9237 0 24.3776 3.1256 18.7023 8.80172C13.0271 14.4778 9.90061 22.0231 9.90061 30.0505C9.90061 37.3192 12.4715 44.1889 17.1711 49.6375C16.3143 49.621 15.4533 49.9342 14.8015 50.586C14.1856 51.202 13.846 52.0211 13.846 52.8925C13.846 52.9564 13.8609 53.0168 13.8643 53.079L11.4221 50.6359C12.4687 49.018 12.284 46.8297 10.8682 45.4139C9.23991 43.7856 6.59027 43.7864 4.96193 45.4139C4.26636 46.1086 3.85073 47.0004 3.75964 47.9523C2.80755 48.0432 1.91682 48.4588 1.22126 49.1546C-0.407085 50.7829 -0.407085 53.4326 1.22126 55.0609C2.6387 56.4784 4.83067 56.6614 6.45987 55.5991L14.398 63.5372C13.3366 65.156 13.5169 67.3567 14.9388 68.7786C15.7526 69.5933 16.8217 70.0002 17.8919 70.0002C18.9621 70.0002 20.0304 69.5933 20.8451 68.7786C21.5406 68.0839 21.9563 67.1921 22.0474 66.2402C22.9995 66.1493 23.8902 65.7336 24.5857 65.0379C26.2141 63.4104 26.2141 60.7608 24.5857 59.1316C23.17 57.715 20.9808 57.5311 19.3637 58.5786L16.9198 56.1338C16.9829 56.1372 17.0449 56.1523 17.108 56.1523C17.9437 56.1523 18.7792 55.8346 19.4145 55.1985C20.0304 54.5826 20.37 53.7634 20.37 52.892C20.37 52.871 20.3647 52.8508 20.3638 52.8308C25.8116 57.5296 32.6813 60.1004 39.9492 60.1004C47.9757 60.1004 55.5218 56.9748 61.1979 51.2987C66.8741 45.6226 69.9997 38.0773 69.9997 30.0508C69.9997 22.0243 66.8744 14.4778 61.1981 8.80172ZM18.6796 60.3696C19.0217 60.7109 19.5756 60.7109 19.9178 60.3696C20.8637 59.4237 22.4028 59.4237 23.3488 60.3696C24.2947 61.3155 24.2947 62.8547 23.3488 63.8006C22.8045 64.3449 22.0537 64.596 21.2821 64.4813C21.0064 64.442 20.7326 64.5338 20.5375 64.7289C20.3423 64.9241 20.2505 65.2006 20.2898 65.4735C20.4018 66.2417 20.1533 66.9961 19.6091 67.5402C18.6632 68.4862 17.1241 68.4862 16.1781 67.5402C15.2322 66.5943 15.2322 65.0552 16.1781 64.1092L16.1947 64.0927C16.5368 63.7505 16.5368 63.1975 16.1947 62.8553L7.1445 53.8068C6.97821 53.6397 6.75689 53.5583 6.5337 53.5583C6.30008 53.5583 6.0656 53.6476 5.8906 53.8226C4.94466 54.7685 3.40553 54.7685 2.4596 53.8226C1.51367 52.8766 1.51367 51.3375 2.4596 50.3916C3.00392 49.8472 3.7581 49.5962 4.5263 49.7109C4.80111 49.751 5.07575 49.6584 5.27091 49.4632C5.46608 49.2681 5.55786 48.9915 5.51855 48.7186C5.40661 47.9504 5.6551 47.1961 6.19925 46.6519C7.14518 45.706 8.68431 45.706 9.63024 46.6519C10.5762 47.5979 10.5762 49.137 9.63024 50.0829C9.2881 50.4251 9.2881 50.9781 9.63024 51.3202L18.6796 60.3696ZM18.1773 53.961C17.5884 54.5508 16.6286 54.5508 16.0388 53.961C15.7536 53.6758 15.596 53.296 15.596 52.8917C15.596 52.4873 15.7536 52.1076 16.0388 51.8223C16.3336 51.5275 16.7214 51.3804 17.1082 51.3804C17.4949 51.3804 17.8825 51.5274 18.1775 51.8223C18.4627 52.1084 18.6203 52.4873 18.6203 52.8917C18.6203 53.296 18.4634 53.6758 18.1773 53.961ZM59.9608 50.061C54.6154 55.4056 47.5093 58.3501 39.9494 58.3501C32.3901 58.3501 25.2834 55.4065 19.9388 50.061C14.5942 44.7156 11.6498 37.6096 11.6498 30.0505C11.6498 22.4914 14.5934 15.3845 19.9388 10.039C25.2834 4.69447 32.3903 1.75002 39.9494 1.75002C47.5085 1.75002 54.6154 4.69361 59.9608 10.039C65.3054 15.3845 68.2498 22.4905 68.2498 30.0505C68.2498 37.6089 65.3064 44.7156 59.9608 50.061Z" fill="#24E9FF" fill-opacity="0.5"/>
<path d="M57.6666 12.3332C47.8979 2.56455 32.0025 2.56455 22.234 12.3332C17.5019 17.0653 14.8953 23.3575 14.8953 30.0505C14.8953 36.7435 17.5021 43.0348 22.234 47.7669C26.9659 52.4989 33.2582 55.1055 39.9504 55.1055C46.6425 55.1055 52.9347 52.4988 57.6668 47.7669C62.3988 43.0348 65.0054 36.7426 65.0054 30.0505C65.0054 23.3584 62.3987 17.0661 57.6666 12.3332ZM56.4293 46.5296C52.0279 50.9318 46.1751 53.3555 39.9502 53.3555C33.7253 53.3555 27.8725 50.9318 23.4711 46.5296C19.0689 42.1282 16.6452 36.2754 16.6452 30.0505C16.6452 23.8256 19.0689 17.9728 23.4711 13.5714C28.0142 9.02835 33.9827 6.75674 39.9502 6.75674C45.9177 6.75674 51.8862 9.02835 56.4293 13.5714C60.8315 17.9736 63.2552 23.8256 63.2552 30.0505C63.2552 36.2754 60.8307 42.1273 56.4293 46.5296Z" fill="#24E9FF" fill-opacity="0.5"/>
</g>
<defs>
<clipPath id="clip0_97_4696">
<rect width="70" height="70" fill="white"/>
</clipPath>
</defs>
</svg>
