<svg width="56" height="56" viewBox="0 0 56 56" fill="none" xmlns="http://www.w3.org/2000/svg">
<g clip-path="url(#clip0_1240_11921)">
<path d="M48.9585 7.04138C44.4176 2.50048 38.3814 0 31.9602 0C25.539 0 19.5021 2.50048 14.9619 7.04138C10.4216 11.5823 7.92049 17.6185 7.92049 24.0404C7.92049 29.8554 9.97717 35.3511 13.7368 39.71C13.0515 39.6968 12.3627 39.9474 11.8412 40.4688C11.3485 40.9616 11.0768 41.6169 11.0768 42.314C11.0768 42.3652 11.0887 42.4134 11.0914 42.4632L9.13771 40.5088C9.97499 39.2144 9.82719 37.4637 8.6946 36.3311C7.39193 35.0285 5.27221 35.0291 3.96954 36.3311C3.41309 36.8869 3.08058 37.6003 3.00771 38.3618C2.24604 38.4346 1.53346 38.7671 0.977004 39.3237C-0.325668 40.6263 -0.325668 42.7461 0.977004 44.0487C2.11096 45.1827 3.86454 45.3291 5.1679 44.4793L11.5184 50.8298C10.6693 52.1248 10.8135 53.8853 11.951 55.0229C12.6021 55.6746 13.4574 56.0001 14.3135 56.0001C15.1697 56.0001 16.0243 55.6746 16.6761 55.0229C17.2325 54.4671 17.565 53.7537 17.6379 52.9922C18.3996 52.9194 19.1121 52.5869 19.6686 52.0303C20.9713 50.7283 20.9713 48.6086 19.6686 47.3053C18.536 46.172 16.7846 46.0249 15.491 46.8628L13.5359 44.9071C13.5863 44.9098 13.6359 44.9218 13.6864 44.9218C14.355 44.9218 15.0234 44.6677 15.5316 44.1588C16.0243 43.666 16.296 43.0107 16.296 42.3136C16.296 42.2968 16.2917 42.2807 16.2911 42.2647C20.6493 46.0237 26.145 48.0803 31.9594 48.0803C38.3806 48.0803 44.4175 45.5799 48.9584 41.039C53.4992 36.4981 55.9997 30.4619 55.9997 24.0406C55.9997 17.6194 53.4995 11.5823 48.9585 7.04138ZM14.9437 48.2957C15.2174 48.5687 15.6605 48.5687 15.9342 48.2957C16.691 47.5389 17.9223 47.5389 18.679 48.2957C19.4358 49.0524 19.4358 50.2837 18.679 51.0405C18.2436 51.4759 17.643 51.6768 17.0257 51.585C16.8051 51.5536 16.5861 51.627 16.43 51.7831C16.2738 51.9393 16.2004 52.1605 16.2319 52.3788C16.3214 52.9934 16.1226 53.5969 15.6873 54.0322C14.9306 54.7889 13.6992 54.7889 12.9425 54.0322C12.1858 53.2754 12.1858 52.0441 12.9425 51.2874L12.9558 51.2741C13.2295 51.0004 13.2295 50.558 12.9558 50.2843L5.7156 43.0455C5.58257 42.9118 5.40552 42.8467 5.22696 42.8467C5.04006 42.8467 4.85248 42.918 4.71248 43.058C3.95573 43.8148 2.72443 43.8148 1.96768 43.058C1.21093 42.3013 1.21093 41.07 1.96768 40.3133C2.40313 39.8778 3.00648 39.677 3.62104 39.7687C3.84089 39.8008 4.0606 39.7267 4.21673 39.5706C4.37287 39.4145 4.44628 39.1932 4.41484 38.9749C4.32529 38.3603 4.52408 37.7569 4.9594 37.3215C5.71614 36.5648 6.94745 36.5648 7.7042 37.3215C8.46094 38.0783 8.46094 39.3096 7.7042 40.0663C7.43048 40.34 7.43048 40.7825 7.7042 41.0562L14.9437 48.2957ZM14.5419 43.1688C14.0707 43.6406 13.3029 43.6406 12.8311 43.1688C12.6029 42.9406 12.4768 42.6368 12.4768 42.3133C12.4768 41.9899 12.6029 41.6861 12.8311 41.4579C13.0669 41.222 13.3771 41.1043 13.6865 41.1043C13.9959 41.1043 14.306 41.2219 14.542 41.4579C14.7702 41.6867 14.8962 41.9899 14.8962 42.3133C14.8962 42.6368 14.7707 42.9406 14.5419 43.1688ZM47.9686 40.0488C43.6923 44.3245 38.0075 46.68 31.9595 46.68C25.9121 46.68 20.2267 44.3252 15.951 40.0488C11.6754 35.7725 9.31982 30.0877 9.31982 24.0404C9.31982 17.9931 11.6747 12.3076 15.951 8.03123C20.2267 3.75557 25.9122 1.40002 31.9595 1.40002C38.0068 1.40002 43.6923 3.75489 47.9686 8.03123C52.2443 12.3076 54.5998 17.9924 54.5998 24.0404C54.5998 30.0871 52.2451 35.7725 47.9686 40.0488Z" fill="#FFB24D"/>
<path d="M46.1333 9.86511C38.3183 2.05017 25.602 2.05017 17.7872 9.86511C14.0015 13.6508 11.9163 18.6845 11.9163 24.0389C11.9163 29.3933 14.0017 34.4264 17.7872 38.212C21.5727 41.9977 26.6066 44.083 31.9603 44.083C37.314 44.083 42.3478 41.9976 46.1334 38.212C49.9191 34.4264 52.0043 29.3926 52.0043 24.0389C52.0043 18.6852 49.9189 13.6514 46.1333 9.86511ZM45.1434 37.2222C41.6223 40.744 36.9401 42.6829 31.9602 42.6829C26.9803 42.6829 22.298 40.744 18.7769 37.2222C15.2551 33.7011 13.3161 29.0188 13.3161 24.0389C13.3161 19.059 15.2551 14.3767 18.7769 10.8557C22.4113 7.22121 27.1862 5.40392 31.9602 5.40392C36.7342 5.40392 41.509 7.22121 45.1434 10.8557C48.6652 14.3774 50.6042 19.059 50.6042 24.0389C50.6042 29.0188 48.6645 33.7004 45.1434 37.2222Z" fill="#FFB24D"/>
</g>
<defs>
<clipPath id="clip0_1240_11921">
<rect width="56" height="56" fill="white"/>
</clipPath>
</defs>
</svg>
