<svg width="108" height="108" viewBox="0 0 108 108" fill="none" xmlns="http://www.w3.org/2000/svg">
<g clip-path="url(#clip0_123_4610)">
<path d="M13.6854 30.673C8.63139 39.4076 7.28126 49.5856 9.88356 59.3347C12.4859 69.0838 18.7288 77.2361 27.4631 82.2891C36.1974 87.3421 46.3756 88.6933 56.1258 86.0907C64.9545 83.7341 72.4651 78.3842 77.5594 70.9095C77.817 71.9555 78.4767 72.8997 79.4797 73.4801C80.4275 74.0285 81.5325 74.1754 82.591 73.8928C82.6686 73.8721 82.7371 73.8345 82.8115 73.8102L80.636 77.5685C78.3315 76.8219 75.7334 77.7558 74.4728 79.9344C73.0229 82.4401 73.883 85.6581 76.3877 87.1083C77.457 87.7279 78.6749 87.9436 79.8606 87.7456C80.2798 88.8726 81.0734 89.8197 82.1439 90.439C84.6497 91.8889 87.868 91.0298 89.3179 88.5241C90.58 86.3429 90.0916 83.6211 88.2731 81.9867L95.3413 69.7712C97.6516 70.5357 100.266 69.6032 101.532 67.4151C102.258 66.1625 102.405 64.732 102.058 63.4321C101.712 62.1323 100.871 60.9666 99.6173 60.2412C98.5479 59.6216 97.33 59.4059 96.1443 59.6039C95.7252 58.4769 94.9316 57.5298 93.861 56.9105C91.3563 55.4603 88.138 56.3194 86.6871 58.8254C85.4255 61.0043 85.9119 63.723 87.7084 65.3475L85.5314 69.1085C85.5151 69.0308 85.5132 68.9505 85.4928 68.8739C85.2218 67.8589 84.565 66.947 83.5865 66.3817C82.6387 65.8333 81.5337 65.6864 80.4752 65.9689C80.4497 65.9757 80.4269 65.9887 80.4029 65.9962C84.3438 57.8558 85.2392 48.6783 82.8828 39.8506C80.2805 30.1015 74.0376 21.9492 65.303 16.8952C56.5684 11.8411 46.3905 10.491 36.6413 13.0933C26.8922 15.6956 18.7394 21.9383 13.6854 30.673ZM90.1056 65.5977C90.4092 65.0715 90.2297 64.3988 89.7042 64.0938C88.2486 63.2516 87.7496 61.3821 88.5918 59.9265C89.4341 58.4709 91.3036 57.9719 92.7592 58.8141C93.5968 59.2988 94.1451 60.1293 94.256 61.1037C94.2977 61.4512 94.4979 61.754 94.7982 61.9278C95.0986 62.1016 95.4642 62.1234 95.7829 61.9872C96.6797 61.6021 97.6765 61.6594 98.5139 62.1439C99.9695 62.9862 100.468 64.8556 99.6262 66.3113C98.784 67.7669 96.9145 68.2659 95.4589 67.4236L95.4334 67.4089C94.9069 67.1042 94.2352 67.2835 93.9305 67.81L85.8742 81.7362C85.7252 81.9924 85.6981 82.2875 85.7705 82.5586C85.8462 82.8424 86.0306 83.0983 86.2999 83.2541C87.7555 84.0964 88.2545 85.9658 87.4122 87.4214C86.57 88.8771 84.7005 89.3761 83.2449 88.5338C82.4073 88.0492 81.8578 87.2145 81.7481 86.2443C81.7078 85.8975 81.5062 85.5939 81.2059 85.4201C80.9055 85.2463 80.5399 85.2245 80.2212 85.3608C79.3244 85.7458 78.3276 85.6885 77.4902 85.204C76.0346 84.3618 75.5356 82.4923 76.3779 81.0367C77.2201 79.581 79.0896 79.082 80.5452 79.9243C81.0717 80.2289 81.7434 80.0496 82.0481 79.5231L90.1056 65.5977ZM82.4845 68.2856C83.3918 68.8097 83.703 69.9754 83.1778 70.883C82.9239 71.3219 82.5137 71.6364 82.0226 71.7675C81.5314 71.8986 81.0191 71.8303 80.5802 71.5764C80.1265 71.3139 79.8221 70.8906 79.6967 70.4208C79.5713 69.9511 79.6242 69.4327 79.8868 68.9787C80.1418 68.5395 80.5509 68.2253 81.0421 68.0942C81.5332 67.9631 82.0453 68.0306 82.4845 68.2856ZM64.2008 18.7991C72.4255 23.559 78.3057 31.2355 80.7568 40.4179C83.2076 49.5995 81.9363 59.1858 77.1765 67.4105C72.4166 75.6351 64.7401 81.5154 55.5587 83.9661C46.3773 86.4169 36.7908 85.1457 28.5651 80.3861C20.3407 75.6273 14.4602 67.9498 12.0094 58.7684C9.55868 49.587 10.8299 40.0005 15.5895 31.7748C20.3493 23.5501 28.0258 17.6699 37.2082 15.2188C46.3888 12.7683 55.9751 14.0393 64.2008 18.7991Z" fill="#FFB24D" fill-opacity="0.41"/>
<path d="M19.1198 33.8175C10.4217 48.8498 15.5752 68.1567 30.6075 76.8546C37.8894 81.068 46.3771 82.194 54.5065 80.024C62.6359 77.8541 69.4323 72.6481 73.6458 65.3665C77.8593 58.0849 78.9853 49.5969 76.8156 41.4686C74.6459 33.3402 69.4397 26.5427 62.1581 22.3292C54.8762 18.1158 46.3885 16.9898 38.2601 19.1595C30.1318 21.3292 23.3343 26.5354 19.1198 33.8175ZM61.0564 24.2335C67.8304 28.1522 72.6718 34.4753 74.69 42.0362C76.7082 49.597 75.6619 57.4918 71.7419 64.265C67.8231 71.039 61.5 75.8804 53.9391 77.8986C46.3783 79.9168 38.4836 78.8705 31.7103 74.9505C24.7193 70.9053 20.0251 64.3923 18.0904 57.1441C16.1556 49.8959 16.9797 41.9099 21.0248 34.9189C24.9446 28.1447 31.2667 23.3035 38.8276 21.2853C46.3884 19.2671 54.2824 20.3147 61.0564 24.2335Z" fill="#FFB24D" fill-opacity="0.41"/>
</g>
<defs>
<clipPath id="clip0_123_4610">
<rect width="88" height="88" fill="white" transform="translate(22.8359 107.859) rotate(-104.945)"/>
</clipPath>
</defs>
</svg>
