<svg width="48" height="48" viewBox="0 0 48 48" fill="none" xmlns="http://www.w3.org/2000/svg">
<g opacity="0.35">
<path d="M33.3063 29.0834V22.5715C33.3063 19.4069 30.732 16.8323 27.5674 16.8323C24.4029 16.8323 21.8285 19.4069 21.8285 22.5715C21.8285 23.9067 21.2918 25.1451 20.317 26.059C19.343 26.9716 18.0701 27.4254 16.7304 27.3401C14.2296 27.1783 12.2705 25.0045 12.2705 22.3912V15.3541C12.9291 14.7401 15.1566 12.3722 14.8999 8.64279C14.8371 7.72545 14.6046 6.93279 14.2087 6.28662C13.6573 5.38662 12.6989 4.83139 11.6452 4.80139C10.5759 4.781 9.58289 5.2774 8.97445 6.15514C8.45484 6.90467 8.19141 7.85974 8.19141 8.99365C8.19141 12.3687 10.6125 14.7459 11.3105 15.3611V22.3912C11.3105 25.5091 13.6641 28.1036 16.6685 28.2982C18.2716 28.4004 19.8038 27.8554 20.9735 26.7593C22.1269 25.6781 22.7885 24.1516 22.7885 22.5715C22.7885 19.9361 24.9323 17.7923 27.5674 17.7923C30.2025 17.7923 32.3463 19.9361 32.3463 22.5715V29.0743C28.6279 29.2783 25.6629 32.3587 25.6629 36.1272C25.6629 40.0272 28.8359 43.2002 32.7359 43.2002C36.6359 43.2002 39.8086 40.0272 39.8086 36.1272C39.8086 32.4198 36.9398 29.3756 33.3063 29.0834ZM9.15141 8.99365C9.15141 8.05896 9.35742 7.28787 9.76336 6.70217C10.1745 6.1092 10.8408 5.76021 11.5556 5.76021C11.5762 5.76021 11.5971 5.76045 11.618 5.76115C12.3572 5.78201 13.0031 6.15631 13.3901 6.78795C13.7041 7.30099 13.89 7.94717 13.9423 8.70865C14.1492 11.7185 12.4767 13.7707 11.7804 14.4869C11.0262 13.7697 9.15141 11.7136 9.15141 8.99365ZM32.7359 42.2402C29.3651 42.2402 26.6229 39.498 26.6229 36.1272C26.6229 32.7567 29.3651 30.0145 32.7359 30.0145C36.1064 30.0145 38.8486 32.7567 38.8486 36.1272C38.8486 39.498 36.1064 42.2402 32.7359 42.2402Z" fill="#FF5B2E"/>
</g>
</svg>
