<svg width="14" height="16" viewBox="0 0 14 16" fill="none" xmlns="http://www.w3.org/2000/svg">
<path d="M12.3472 6.47195H13.1111C13.3137 6.47195 13.508 6.55243 13.6513 6.69569C13.7945 6.83895 13.875 7.03324 13.875 7.23584V14.8747C13.875 15.0773 13.7945 15.2716 13.6513 15.4149C13.508 15.5581 13.3137 15.6386 13.1111 15.6386H0.888889C0.686293 15.6386 0.491995 15.5581 0.348738 15.4149C0.205481 15.2716 0.125 15.0773 0.125 14.8747V7.23584C0.125 7.03324 0.205481 6.83895 0.348738 6.69569C0.491995 6.55243 0.686293 6.47195 0.888889 6.47195H1.65278V5.70806C1.65278 5.00586 1.79109 4.31052 2.05981 3.66177C2.32853 3.01301 2.72241 2.42354 3.21894 1.92701C3.71548 1.43047 4.30495 1.0366 4.95371 0.767873C5.60246 0.49915 6.29779 0.36084 7 0.36084C7.70221 0.36084 8.39754 0.49915 9.04629 0.767873C9.69505 1.0366 10.2845 1.43047 10.7811 1.92701C11.2776 2.42354 11.6715 3.01301 11.9402 3.66177C12.2089 4.31052 12.3472 5.00586 12.3472 5.70806V6.47195ZM10.8194 6.47195V5.70806C10.8194 4.69508 10.417 3.72359 9.70076 3.00731C8.98447 2.29102 8.01298 1.88862 7 1.88862C5.98702 1.88862 5.01553 2.29102 4.29924 3.00731C3.58296 3.72359 3.18056 4.69508 3.18056 5.70806V6.47195H10.8194ZM6.23611 9.52751V12.5831H7.76389V9.52751H6.23611Z" fill="#040937" fill-opacity="0.7"/>
</svg>
