<svg width="48" height="48" viewBox="0 0 48 48" fill="none" xmlns="http://www.w3.org/2000/svg">
<path d="M23.1192 22.7982C23.4117 21.4727 23.0138 20.1091 22.0653 19.1615L19.0285 15.7506C18.1025 14.7108 16.7729 14.1145 15.3802 14.1145C13.9875 14.1145 12.6578 14.7108 11.7318 15.7506L8.70562 19.1504C7.74649 20.1091 7.34859 21.4727 7.64107 22.7982C7.94159 24.1587 8.91308 25.2318 10.3073 25.7421C11.6897 26.2483 13.2578 25.8519 14.3011 24.73C14.5831 24.427 14.9662 24.2602 15.3802 24.2602C15.7941 24.2602 16.1773 24.427 16.4592 24.73C17.2015 25.528 18.2092 25.9593 19.2269 25.9593C19.6396 25.9593 20.054 25.8883 20.453 25.7421C21.8472 25.2318 22.8187 24.1587 23.1192 22.7982Z" fill="#9BB7D4"/>
<path d="M18.0028 11.7358C18.071 11.743 18.139 11.7466 18.2072 11.7466C18.6922 11.7466 19.1686 11.5664 19.596 11.219C20.3112 10.6379 20.8047 9.63609 20.9166 8.53949C21.1114 6.63066 20.1216 4.95788 18.7097 4.81092C18.1568 4.7523 17.6041 4.93155 17.1165 5.32771C16.4013 5.90881 15.9078 6.91063 15.796 8.0072C15.6011 9.91606 16.591 11.5888 18.0028 11.7358Z" fill="#9BB7D4"/>
<path d="M21.792 15.189C22.068 15.3334 22.37 15.4057 22.6871 15.4057C22.917 15.4057 23.155 15.3675 23.396 15.2908C24.2304 15.0253 25.013 14.3104 25.4897 13.3783C26.3215 11.7518 26.0192 9.91678 24.8159 9.2879C24.3394 9.03869 23.7847 9.00356 23.2118 9.18588C22.3778 9.45115 21.5949 10.1663 21.1179 11.0983C20.2864 12.7247 20.5887 14.5596 21.792 15.189Z" fill="#9BB7D4"/>
<path d="M11.1636 11.2193C11.591 11.5664 12.0674 11.7466 12.5524 11.7466C12.6204 11.7466 12.6886 11.743 12.7568 11.7358C14.1686 11.5888 15.1585 9.91605 14.9636 8.00719C14.8518 6.91062 14.3582 5.9088 13.6431 5.3277C13.156 4.9318 12.6059 4.75229 12.0499 4.81091C10.6383 4.95787 9.6482 6.63065 9.84277 8.53948C9.95489 9.63634 10.4487 10.6379 11.1636 11.2193Z" fill="#9BB7D4"/>
<path d="M8.96743 15.189C10.1707 14.5596 10.473 12.7247 9.64155 11.0983C9.16457 10.1663 8.38167 9.45115 7.54761 9.18588C6.97477 9.00356 6.42004 9.03869 5.94357 9.2879C4.7403 9.91678 4.43797 11.7518 5.26971 13.3783C5.74642 14.3104 6.52906 15.0253 7.36338 15.2908C7.60445 15.3675 7.84244 15.4057 8.0724 15.4057C8.38943 15.4057 8.69147 15.3334 8.96743 15.189Z" fill="#9BB7D4"/>
<path d="M36.2687 32.9913C35.3426 31.9515 34.013 31.3552 32.6203 31.3552C31.2276 31.3552 29.898 31.9515 28.9719 32.9913L25.9457 36.3911C24.9866 37.3498 24.5887 38.7134 24.8812 40.0389C25.1817 41.3993 26.1532 42.4725 27.5475 42.9828C28.9298 43.489 30.4979 43.0925 31.5413 41.9707C31.8232 41.6677 32.2064 41.5008 32.6203 41.5008C33.0342 41.5008 33.4174 41.6677 33.6993 41.9707C34.4416 42.7687 35.4493 43.2 36.4671 43.2C36.8797 43.2 37.2942 43.129 37.6931 42.9828C39.0873 42.4725 40.0589 41.3993 40.3594 40.0389C40.6519 38.7134 40.254 37.3498 39.3054 36.4022L36.2687 32.9913Z" fill="#9BB7D4"/>
<path d="M35.244 28.9762C35.3122 28.9835 35.3802 28.9871 35.4484 28.9871C35.9334 28.9871 36.4098 28.8068 36.8372 28.4595C37.5524 27.8784 38.0459 26.8766 38.1578 25.78C38.3526 23.8711 37.3627 22.1983 35.951 22.0514C35.398 21.9928 34.8453 22.172 34.3578 22.5682C33.6426 23.1493 33.149 24.1511 33.0372 25.2477C32.8423 27.1565 33.8322 28.8293 35.244 28.9762Z" fill="#9BB7D4"/>
<path d="M42.0562 26.5284C41.5797 26.2792 41.025 26.2441 40.4521 26.4264C39.6181 26.6917 38.8352 27.4068 38.3582 28.3389C37.5267 29.9652 37.829 31.8001 39.0323 32.4296C39.3083 32.5739 39.6103 32.6462 39.9273 32.6462C40.1573 32.6462 40.3953 32.608 40.6363 32.5313C41.4707 32.2658 42.2533 31.5509 42.73 30.6188C43.5618 28.9923 43.2594 27.1573 42.0562 26.5284Z" fill="#9BB7D4"/>
<path d="M28.4037 28.4598C28.8311 28.8069 29.3076 28.9871 29.7925 28.9871C29.8605 28.9871 29.9287 28.9835 29.9969 28.9763C31.4087 28.8293 32.3986 27.1566 32.2038 25.2477C32.0919 24.1511 31.5984 23.1493 30.8832 22.5682C30.3961 22.1723 29.846 21.9928 29.29 22.0515C27.8784 22.1984 26.8883 23.8712 27.0829 25.78C27.195 26.8769 27.6888 27.8784 28.4037 28.4598Z" fill="#9BB7D4"/>
<path d="M26.2084 32.4296C27.4117 31.8001 27.714 29.9652 26.8826 28.3389C26.4056 27.4068 25.6227 26.6917 24.7886 26.4264C24.2158 26.2441 23.661 26.2792 23.1846 26.5284C21.9813 27.1573 21.679 28.9923 22.5107 30.6188C22.9874 31.5509 23.7701 32.2658 24.6044 32.5313C24.8455 32.608 25.0834 32.6462 25.3134 32.6462C25.6304 32.6462 25.9325 32.5739 26.2084 32.4296Z" fill="#9BB7D4"/>
</svg>
