<svg width="181" height="181" viewBox="0 0 181 181" fill="none" xmlns="http://www.w3.org/2000/svg">
<g clip-path="url(#clip0_152_4723)">
<path d="M88.3726 85.8334C90.2522 82.0814 90.0908 77.6924 87.9641 74.1343L81.4408 61.6118C79.4513 57.7942 75.9164 55.0007 71.7414 53.9472C67.5664 52.8936 63.1293 53.6755 59.5666 56.092L47.9229 63.9948C44.3224 66.1431 42.0981 69.93 41.9722 74.1246C41.8439 78.4306 43.9445 82.3824 47.7381 84.967C51.4992 87.5301 56.5 87.528 60.4764 84.9539C61.5507 84.259 62.8256 84.0488 64.0665 84.3619C65.3073 84.6751 66.3299 85.465 66.9457 86.5864C68.5674 89.5404 71.262 91.5956 74.313 92.3655C75.5501 92.6777 76.8462 92.7783 78.1527 92.6419C82.7185 92.1667 86.4426 89.6848 88.3726 85.8334Z" fill="#9BB7D4"/>
<path d="M81.403 48.8002C81.602 48.8735 81.803 48.9357 82.0075 48.9873C83.4613 49.3542 85.0261 49.1742 86.57 48.4562C89.1536 47.2552 91.3909 44.6253 92.5559 41.4225C94.5839 35.8476 92.8819 30.0842 88.7607 28.5756C87.1474 27.9816 85.355 28.1009 83.5937 28.9196C81.0101 30.1206 78.7728 32.7506 77.6079 35.9532C75.5798 41.5282 77.2818 47.2917 81.403 48.8002Z" fill="#9BB7D4"/>
<path d="M90.15 62.0187C90.868 62.6603 91.7189 63.1056 92.6693 63.3454C93.3586 63.5194 94.1009 63.5847 94.8816 63.5372C97.5836 63.3724 100.471 61.8214 102.605 59.3879C106.329 55.1409 106.81 49.4114 103.679 46.6159C102.439 45.5084 100.803 44.9834 98.9475 45.0966C96.2465 45.2609 93.3585 46.8124 91.2236 49.2458C87.5007 53.4921 87.0189 59.2217 90.15 62.0187Z" fill="#9BB7D4"/>
<path d="M61.2912 42.078C62.3098 43.4419 63.6017 44.3427 65.0556 44.7096C65.2594 44.761 65.4666 44.8018 65.6765 44.8317C70.02 45.4591 74.2528 41.1933 75.1128 35.3235C75.607 31.9516 74.8853 28.575 73.1809 26.292C72.0203 24.7367 70.507 23.7824 68.7957 23.5375C64.4531 22.9103 60.2195 27.1759 59.3588 33.0454C58.8651 36.4184 59.5877 39.7944 61.2912 42.078Z" fill="#9BB7D4"/>
<path d="M51.7045 52.3171C55.7879 51.3406 58.0822 46.0684 56.8198 40.5641C56.0951 37.4091 54.289 34.6731 51.9894 33.2469C50.41 32.267 48.7205 31.9527 47.1036 32.3393C43.0207 33.3143 40.7263 38.5865 41.9892 44.0918C42.7132 47.2466 44.5186 49.9817 46.8189 51.4087C47.4836 51.821 48.1681 52.1157 48.8575 52.2897C49.8079 52.5295 50.768 52.5412 51.7045 52.3171Z" fill="#9BB7D4"/>
<path d="M120.081 126.338C118.092 122.52 114.557 119.727 110.382 118.673C106.207 117.619 101.77 118.401 98.207 120.818L86.5632 128.721C82.9628 130.869 80.7383 134.656 80.6126 138.85C80.4842 143.156 82.5848 147.108 86.3784 149.693C90.1395 152.256 95.1403 152.254 99.1168 149.68C100.191 148.985 101.466 148.774 102.707 149.088C103.948 149.401 104.97 150.191 105.586 151.312C107.208 154.266 109.902 156.321 112.953 157.091C114.19 157.403 115.487 157.504 116.793 157.368C121.359 156.893 125.083 154.41 127.013 150.559C128.892 146.807 128.731 142.418 126.605 138.86L120.081 126.338Z" fill="#9BB7D4"/>
<path d="M120.047 113.526C120.246 113.6 120.447 113.662 120.651 113.713C122.105 114.08 123.67 113.9 125.214 113.182C127.797 111.981 130.035 109.351 131.2 106.149C133.228 100.574 131.526 94.8102 127.404 93.3017C125.791 92.7077 123.999 92.8268 122.237 93.6457C119.654 94.8466 117.416 97.4765 116.252 100.679C114.224 106.254 115.926 112.018 120.047 113.526Z" fill="#9BB7D4"/>
<path d="M142.32 111.341C141.08 110.234 139.444 109.709 137.589 109.822C134.888 109.986 132 111.538 129.865 113.971C126.142 118.217 125.66 123.947 128.791 126.744C129.509 127.386 130.36 127.831 131.31 128.071C132 128.245 132.742 128.31 133.523 128.263C136.225 128.098 139.112 126.547 141.246 124.113C144.97 119.866 145.451 114.137 142.32 111.341Z" fill="#9BB7D4"/>
<path d="M99.9316 106.803C100.95 108.167 102.242 109.068 103.696 109.435C103.9 109.486 104.107 109.527 104.317 109.557C108.66 110.184 112.893 105.919 113.753 100.049C114.247 96.6769 113.526 93.3003 111.821 91.0173C110.661 89.4619 109.147 88.5078 107.436 88.2629C103.093 87.6356 98.8599 91.9013 97.9991 97.7708C97.5056 101.144 98.2282 104.52 99.9316 106.803Z" fill="#9BB7D4"/>
<path d="M90.3476 117.043C94.4309 116.067 96.7253 110.794 95.463 105.29C94.7382 102.135 92.9322 99.3991 90.6325 97.973C89.0532 96.9931 87.3635 96.6787 85.7467 97.0654C81.6637 98.0404 79.3694 103.313 80.6324 108.818C81.3563 111.973 83.1617 114.708 85.462 116.135C86.1267 116.547 86.8111 116.842 87.5005 117.016C88.4509 117.255 89.4111 117.267 90.3476 117.043Z" fill="#9BB7D4"/>
</g>
<defs>
<clipPath id="clip0_152_4723">
<rect width="148.405" height="148.405" fill="white" transform="translate(36.312) rotate(14.1625)"/>
</clipPath>
</defs>
</svg>
