<svg width="84" height="84" viewBox="0 0 84 84" fill="none" xmlns="http://www.w3.org/2000/svg">
<path d="M67.4438 7.14175L66.0896 10.9493C66.0317 11.1124 65.9169 11.2415 65.772 11.3068L62.3892 12.8309C61.9113 13.0462 61.9113 13.8078 62.3892 14.023L65.772 15.5472C65.9169 15.6125 66.0315 15.7416 66.0896 15.9047L67.4438 19.7122C67.6351 20.2502 68.3117 20.2502 68.503 19.7122L69.8572 15.9047C69.9151 15.7416 70.0299 15.6125 70.1748 15.5472L73.5576 14.023C74.0355 13.8078 74.0355 13.0462 73.5576 12.8309L70.1748 11.3068C70.0299 11.2415 69.9152 11.1124 69.8572 10.9493L68.503 7.14175C68.3115 6.60379 67.6351 6.60379 67.4438 7.14175Z" fill="#D324FF" fill-opacity="0.4"/>
<path d="M46.1405 3.18597L45.1361 6.0103C45.0931 6.13122 45.008 6.22703 44.9005 6.27543L42.3912 7.40598C42.0366 7.56578 42.0366 8.13048 42.3912 8.29028L44.9005 9.42084C45.008 9.46923 45.0931 9.56505 45.1361 9.68596L46.1405 12.5103C46.2824 12.9093 46.7843 12.9093 46.9262 12.5103L47.9306 9.68596C47.9736 9.56505 48.0587 9.46923 48.1662 9.42084L50.6755 8.29028C51.03 8.13048 51.03 7.56578 50.6755 7.40598L48.1662 6.27543C48.0587 6.22703 47.9736 6.13122 47.9306 6.0103L46.9262 3.18597C46.7843 2.78697 46.2824 2.78697 46.1405 3.18597Z" fill="#D324FF" fill-opacity="0.4"/>
<path d="M69.3172 37.1049C67.6842 37.1049 66.3605 35.7811 66.3605 34.1481C66.3605 32.5152 67.6842 31.1914 69.3172 31.1914C70.9502 31.1914 72.2739 32.5152 72.2739 34.1481C72.2739 35.7811 70.9502 37.1049 69.3172 37.1049Z" fill="#D324FF" fill-opacity="0.4"/>
<path d="M8.11176 47.6504C8.11176 48.3549 8.68286 48.9258 9.38718 48.9258C10.0917 48.9258 10.6626 48.3547 10.6626 47.6504C10.6626 46.9461 10.0915 46.375 9.38718 46.375C8.68286 46.375 8.11176 46.9461 8.11176 47.6504Z" fill="#D324FF" fill-opacity="0.4"/>
<path d="M21.2983 47.3527L19.9441 51.1603C19.8862 51.3233 19.7714 51.4524 19.6265 51.5177L16.2437 53.0419C15.7658 53.2571 15.7658 54.0187 16.2437 54.234L19.6265 55.7581C19.7714 55.8234 19.886 55.9525 19.9441 56.1156L21.2983 59.9232C21.4896 60.4611 22.1662 60.4611 22.3575 59.9232L23.7116 56.1156C23.7696 55.9525 23.8844 55.8234 24.0293 55.7581L27.4121 54.234C27.89 54.0187 27.89 53.2571 27.4121 53.0419L24.0293 51.5177C23.8844 51.4524 23.7697 51.3233 23.7116 51.1603L22.3575 47.3527C22.1662 46.8147 21.4896 46.8147 21.2983 47.3527Z" fill="#D324FF" fill-opacity="0.4"/>
<path d="M0.349297 15.4477L0.726479 14.6158C1.61275 12.6611 3.92406 11.7921 5.8782 12.6785L7.80578 13.5525L4.96979 10.7165C3.47108 9.21763 3.47108 6.77901 4.96979 5.28029L5.68346 4.56662C6.40944 3.84065 7.37478 3.44083 8.40165 3.44083C9.42835 3.44083 10.3937 3.84065 11.1198 4.56662L14.2953 7.74205L13.5284 5.70308C12.7659 3.67544 13.795 1.40563 15.8227 0.642904L16.6089 0.347263C17.591 -0.0220414 18.6582 0.013068 19.614 0.446521C20.5697 0.87981 21.2994 1.65944 21.6687 2.64151L24.2867 9.60285C24.8461 9.77413 25.3967 9.98643 25.933 10.2437C29.7372 9.61614 33.5829 10.841 36.3243 13.5825C38.5811 15.8394 39.8239 18.8399 39.8239 22.0316C39.8239 23.6768 39.4912 25.27 38.8621 26.738C46.3429 32.7964 52.7927 39.1979 58.1369 45.8694C62.4737 44.066 67.665 44.9232 71.1871 48.4453C74.0217 51.2801 75.2282 55.2503 74.4703 59.161C74.6056 59.5131 74.7215 59.869 74.8222 60.2268L81.8815 63.4275C81.8815 63.4275 81.8815 63.4275 81.8816 63.4275C83.6939 64.2493 84.4997 66.3923 83.6781 68.2047L83.0673 69.5518C82.4641 70.8823 81.1489 71.6703 79.7751 71.6703C79.2776 71.6703 78.772 71.567 78.2901 71.3484L76.1048 70.3577L79.1205 73.3733C80.5199 74.7729 80.5199 77.0503 79.1205 78.45L78.0475 79.523C77.3694 80.2011 76.4679 80.5745 75.5091 80.5745C74.5503 80.5745 73.6488 80.2011 72.9707 79.523L69.6155 76.1678L70.4978 78.5139C71.1967 80.3722 70.2534 82.4525 68.395 83.1516L66.9949 83.6781C66.5789 83.8346 66.1518 83.9087 65.7313 83.9087C64.2743 83.9086 62.8996 83.0175 62.3572 81.5754L59.832 74.8605C59.2569 74.6871 58.6912 74.4697 58.1405 74.2057C54.3369 74.8334 50.4904 73.6086 47.7489 70.8669C43.6826 66.8006 43.1665 60.509 46.1985 55.8763C44.6445 54.0169 43.0078 52.1738 41.2885 50.3489H41.2822V50.3422C37.2007 46.0109 32.6567 41.7826 27.6757 37.6802C25.744 38.89 23.5407 39.4983 21.3352 39.4982C18.2757 39.498 15.2153 38.3331 12.8863 36.0041C10.0516 33.1693 8.84511 29.1991 9.60308 25.2884C9.40144 24.7637 9.23969 24.2315 9.11467 23.6953L2.28655 20.5993C1.33974 20.1701 0.616882 19.3979 0.250862 18.4248C-0.11467 17.4518 -0.0798874 16.3944 0.349297 15.4477ZM8.78835 6.89795C8.57523 6.68467 8.22791 6.68467 8.01479 6.89795L7.30112 7.61162C7.16167 7.75091 7.14083 7.91383 7.14083 7.99832C7.14083 8.08297 7.16167 8.24572 7.30112 8.38501L11.9087 12.9925C12.0399 12.8482 12.1736 12.7054 12.3127 12.5661C12.6743 12.2046 13.0568 11.8715 13.4553 11.5645L8.78835 6.89795ZM18.5829 3.80209C18.4602 3.47626 18.0951 3.31072 17.7693 3.43328L16.9831 3.72892C16.6571 3.85147 16.4916 4.21651 16.6141 4.54251L18.41 9.31754C19.1207 9.1753 19.8434 9.09557 20.5687 9.08244L18.5829 3.80209ZM37.1359 29.5835C36.8819 29.8938 36.6117 30.1932 36.3244 30.4805C35.5305 31.2744 34.628 31.9482 33.651 32.4869H40.5876C39.4639 31.5109 38.3134 30.543 37.1359 29.5835ZM68.8557 50.7766C67.169 49.0897 64.9538 48.2466 62.7382 48.2466C60.7223 48.2466 58.7075 48.9475 57.09 50.344V50.3491H57.0841C56.9261 50.4857 56.7706 50.6267 56.6204 50.7766C56.0274 51.3697 55.5296 52.0391 55.1334 52.7695C55.4517 54.9082 58.1746 56.1664 59.685 56.705C60.6688 55.7408 62.4804 54.3686 64.9981 54.1245C67.0939 53.9215 69.2173 54.5281 71.3367 55.9221C71.1241 54.0047 70.2732 52.194 68.8557 50.7766ZM71.2734 60.0517C69.1737 58.1314 67.1821 57.2382 65.3499 57.4028C63.9151 57.5316 62.8145 58.3018 62.169 58.8897C63.5542 61.9859 63.3504 65.4474 61.5582 68.9769C61.0834 69.9119 60.5501 70.7439 60.0451 71.4433C63.2244 72.7351 66.9644 72.0173 69.4296 69.5518C71.9429 67.0387 72.6613 63.3186 71.2734 60.0517ZM79.6515 68.3456C79.749 68.3896 79.8353 68.3741 79.8902 68.3535C79.9455 68.3326 80.0205 68.2875 80.0646 68.1902L80.6754 66.8431C80.7465 66.6864 80.6768 66.501 80.5202 66.43L75.256 64.0431C75.2199 64.7751 75.1164 65.5009 74.9462 66.212L79.6515 68.3456ZM75.3021 77.1917C75.3729 77.2626 75.4538 77.2775 75.5091 77.2775C75.5646 77.2775 75.6455 77.2626 75.7162 77.1917L76.7891 76.1187C76.9033 76.0045 76.9033 75.8186 76.7891 75.7044L72.3429 71.2584C72.1572 71.4718 71.9636 71.6805 71.7608 71.8831C71.4633 72.1805 71.1518 72.4586 70.8292 72.719L75.3021 77.1917ZM65.8345 80.592L67.2346 80.0656C67.3913 80.0067 67.4709 79.8311 67.412 79.6744L65.7006 75.1237C64.9906 75.268 64.2685 75.3473 63.5436 75.3629L65.4434 80.415C65.5021 80.5715 65.6769 80.6516 65.8345 80.592ZM50.0806 68.5354C51.7041 70.159 53.8637 71.0439 56.1046 71.0646C56.6557 70.4704 57.7932 69.1364 58.6571 67.4081C60.0095 64.7026 60.1333 62.2042 59.0325 59.9715C57.2919 59.4121 53.5656 57.8789 52.2638 54.7151C51.4612 55.1251 50.7222 55.6588 50.0806 56.3003C46.7073 59.6734 46.7073 65.1621 50.0806 68.5354ZM48.4009 53.3695C49.5384 52.39 50.8513 51.6278 52.2675 51.1348C52.4152 50.8664 52.5738 50.6047 52.7413 50.3489H45.7689C46.6697 51.3507 47.5473 52.3575 48.4009 53.3695ZM42.6992 47.0519H54.85C53.6855 45.6302 52.4685 44.221 51.2001 42.8247H38.4541C39.9174 44.2217 41.3315 45.6313 42.6992 47.0519ZM34.8849 39.5278H48.0866C46.829 38.2472 45.5272 36.9786 44.1817 35.7224V35.7839H30.5507C32.0344 37.0208 33.4789 38.269 34.8849 39.5278ZM31.6147 29.8291C32.4928 29.408 33.3001 28.8423 33.9931 28.1491C35.6272 26.5151 36.527 24.3424 36.527 22.0316C36.527 19.7206 35.6272 17.5481 33.9931 15.914C32.3502 14.2709 30.1586 13.3804 27.8893 13.3804C27.6667 13.3804 27.4431 13.392 27.2193 13.4094C27.1625 13.4381 27.1043 13.4649 27.0431 13.4874C25.1892 14.1722 24.0421 15.1701 23.5363 16.5386C22.7455 18.6778 23.6849 21.2308 24.1786 22.328C28.5995 23.8735 30.7442 27.1497 31.6147 29.8291ZM15.2178 33.6728C18.5912 37.0461 24.08 37.0461 27.4532 33.6728C27.7929 33.3332 28.0983 32.9663 28.3745 32.5795L28.4422 32.4869C28.5502 32.3314 28.6537 32.1731 28.7513 32.011C28.5257 30.6058 27.4989 26.8975 22.9186 25.3852C20.5523 27.2281 18.2787 27.7879 16.3917 27.7879C15.5676 27.7879 14.817 27.6812 14.165 27.5285C13.6308 27.4033 13.1421 27.242 12.6986 27.0666C12.5542 29.511 13.4443 31.8993 15.2178 33.6728ZM12.3844 23.1808C12.7836 23.4635 13.7476 24.0677 15.0357 24.3452C17.0159 24.7714 18.9597 24.2613 20.8235 22.8347C20.1564 21.0669 19.4317 18.1569 20.4363 15.4159C20.8437 14.3042 21.4848 13.3371 22.3491 12.5169C19.6014 12.0131 16.6857 12.8559 14.6441 14.8976C12.4384 17.1031 11.615 20.2382 12.3844 23.1808ZM3.33704 17.2642C3.36952 17.3504 3.45287 17.508 3.64827 17.5966L8.84872 19.9545C8.91205 19.2327 9.04117 18.5183 9.23541 17.8206L4.51698 15.6812C4.21822 15.5457 3.86483 15.6786 3.72948 15.9772L3.3523 16.8091C3.26354 17.0045 3.30472 17.1781 3.33704 17.2642Z" fill="#D324FF" fill-opacity="0.4"/>
<path d="M32.659 22.2632C32.9004 22.2632 33.1453 22.2101 33.377 22.0977C34.1962 21.7005 34.5384 20.7145 34.141 19.8951C33.186 17.9254 31.3357 16.3138 31.1277 16.1365C30.435 15.5455 29.3944 15.6284 28.8037 16.321C28.2134 17.0131 28.2953 18.0522 28.9863 18.6434C29.4077 19.0053 30.6217 20.1936 31.1745 21.3336C31.4593 21.921 32.0471 22.2632 32.659 22.2632Z" fill="#D324FF" fill-opacity="0.4"/>
</svg>
