<svg width="84" height="84" viewBox="0 0 84 84" fill="none" xmlns="http://www.w3.org/2000/svg">
<g clip-path="url(#clip0_679_15806)">
<path d="M16.5562 7.14175L17.9104 10.9493C17.9683 11.1124 18.0831 11.2415 18.228 11.3068L21.6108 12.8309C22.0887 13.0462 22.0887 13.8078 21.6108 14.023L18.228 15.5472C18.0831 15.6125 17.9685 15.7416 17.9104 15.9047L16.5562 19.7122C16.3649 20.2502 15.6883 20.2502 15.497 19.7122L14.1428 15.9047C14.0849 15.7416 13.9701 15.6125 13.8252 15.5472L10.4424 14.023C9.96451 13.8078 9.96451 13.0462 10.4424 12.8309L13.8252 11.3068C13.9701 11.2415 14.0848 11.1124 14.1428 10.9493L15.497 7.14175C15.6885 6.60379 16.3649 6.60379 16.5562 7.14175Z" fill="#55C8FA"/>
<path d="M37.8595 3.18597L38.8639 6.0103C38.9069 6.13122 38.992 6.22703 39.0995 6.27543L41.6088 7.40598C41.9634 7.56578 41.9634 8.13048 41.6088 8.29028L39.0995 9.42084C38.992 9.46923 38.9069 9.56505 38.8639 9.68596L37.8595 12.5103C37.7176 12.9093 37.2157 12.9093 37.0738 12.5103L36.0694 9.68596C36.0264 9.56505 35.9413 9.46923 35.8338 9.42084L33.3245 8.29028C32.97 8.13048 32.97 7.56578 33.3245 7.40598L35.8338 6.27543C35.9413 6.22703 36.0264 6.13122 36.0694 6.0103L37.0738 3.18597C37.2157 2.78697 37.7176 2.78697 37.8595 3.18597Z" fill="#55C8FA"/>
<path d="M14.6828 37.1049C16.3158 37.1049 17.6395 35.7811 17.6395 34.1481C17.6395 32.5152 16.3158 31.1914 14.6828 31.1914C13.0498 31.1914 11.7261 32.5152 11.7261 34.1481C11.7261 35.7811 13.0498 37.1049 14.6828 37.1049Z" fill="#55C8FA"/>
<path d="M75.8882 47.6504C75.8882 48.3549 75.3171 48.9258 74.6128 48.9258C73.9083 48.9258 73.3374 48.3547 73.3374 47.6504C73.3374 46.9461 73.9085 46.375 74.6128 46.375C75.3171 46.375 75.8882 46.9461 75.8882 47.6504Z" fill="#55C8FA"/>
<path d="M62.7017 47.3527L64.0559 51.1603C64.1138 51.3233 64.2286 51.4524 64.3735 51.5177L67.7563 53.0419C68.2342 53.2571 68.2342 54.0187 67.7563 54.234L64.3735 55.7581C64.2286 55.8234 64.114 55.9525 64.0559 56.1156L62.7017 59.9232C62.5104 60.4611 61.8338 60.4611 61.6425 59.9232L60.2884 56.1156C60.2304 55.9525 60.1156 55.8234 59.9707 55.7581L56.5879 54.234C56.11 54.0187 56.11 53.2571 56.5879 53.0419L59.9707 51.5177C60.1156 51.4524 60.2303 51.3233 60.2884 51.1603L61.6425 47.3527C61.8338 46.8147 62.5104 46.8147 62.7017 47.3527Z" fill="#55C8FA"/>
<path d="M83.6507 15.4477L83.2735 14.6158C82.3873 12.6611 80.0759 11.7921 78.1218 12.6785L76.1942 13.5525L79.0302 10.7165C80.5289 9.21763 80.5289 6.77901 79.0302 5.28029L78.3165 4.56662C77.5906 3.84065 76.6252 3.44083 75.5984 3.44083C74.5716 3.44083 73.6063 3.84065 72.8802 4.56662L69.7047 7.74205L70.4716 5.70308C71.2341 3.67544 70.205 1.40563 68.1773 0.642904L67.3911 0.347263C66.409 -0.0220414 65.3418 0.013068 64.386 0.446521C63.4303 0.87981 62.7006 1.65944 62.3313 2.64151L59.7133 9.60285C59.1539 9.77413 58.6033 9.98643 58.067 10.2437C54.2628 9.61614 50.4171 10.841 47.6757 13.5825C45.4189 15.8394 44.1761 18.8399 44.1761 22.0316C44.1761 23.6768 44.5088 25.27 45.1379 26.738C37.6571 32.7964 31.2073 39.1979 25.8631 45.8694C21.5263 44.066 16.335 44.9232 12.8129 48.4453C9.97827 51.2801 8.77176 55.2503 9.52973 59.161C9.39437 59.5131 9.27855 59.869 9.17781 60.2268L2.11853 63.4275C2.11853 63.4275 2.11853 63.4275 2.11837 63.4275C0.306131 64.2493 -0.499744 66.3923 0.321881 68.2047L0.932686 69.5518C1.53594 70.8823 2.85107 71.6703 4.22493 71.6703C4.72237 71.6703 5.22801 71.567 5.70986 71.3484L7.89517 70.3577L4.87954 73.3733C3.48008 74.7729 3.48008 77.0503 4.87954 78.45L5.95251 79.523C6.63058 80.2011 7.5321 80.5745 8.49088 80.5745C9.44966 80.5745 10.3512 80.2011 11.0293 79.523L14.3845 76.1678L13.5022 78.5139C12.8033 80.3722 13.7466 82.4525 15.605 83.1516L17.0051 83.6781C17.4211 83.8346 17.8482 83.9087 18.2687 83.9087C19.7257 83.9086 21.1004 83.0175 21.6428 81.5754L24.168 74.8605C24.7431 74.6871 25.3088 74.4697 25.8595 74.2057C29.6631 74.8334 33.5096 73.6086 36.2511 70.8669C40.3174 66.8006 40.8335 60.509 37.8015 55.8763C39.3555 54.0169 40.9922 52.1738 42.7115 50.3489H42.7178V50.3422C46.7993 46.0109 51.3433 41.7826 56.3243 37.6802C58.256 38.89 60.4593 39.4983 62.6648 39.4982C65.7243 39.498 68.7847 38.3331 71.1137 36.0041C73.9484 33.1693 75.1549 29.1991 74.3969 25.2884C74.5986 24.7637 74.7603 24.2315 74.8853 23.6953L81.7134 20.5993C82.6603 20.1701 83.3831 19.3979 83.7491 18.4248C84.1147 17.4518 84.0799 16.3944 83.6507 15.4477ZM75.2117 6.89795C75.4248 6.68467 75.7721 6.68467 75.9852 6.89795L76.6989 7.61162C76.8383 7.75091 76.8592 7.91383 76.8592 7.99832C76.8592 8.08297 76.8383 8.24572 76.6989 8.38501L72.0913 12.9925C71.9601 12.8482 71.8264 12.7054 71.6873 12.5661C71.3257 12.2046 70.9432 11.8715 70.5447 11.5645L75.2117 6.89795ZM65.4171 3.80209C65.5398 3.47626 65.9049 3.31072 66.2307 3.43328L67.0169 3.72892C67.3429 3.85147 67.5084 4.21651 67.3859 4.54251L65.59 9.31754C64.8793 9.1753 64.1566 9.09557 63.4313 9.08244L65.4171 3.80209ZM46.8641 29.5835C47.1181 29.8938 47.3883 30.1932 47.6756 30.4805C48.4695 31.2744 49.372 31.9482 50.349 32.4869H43.4124C44.5361 31.5109 45.6866 30.543 46.8641 29.5835ZM15.1443 50.7766C16.831 49.0897 19.0462 48.2466 21.2618 48.2466C23.2777 48.2466 25.2925 48.9475 26.91 50.344V50.3491H26.9159C27.0739 50.4857 27.2294 50.6267 27.3796 50.7766C27.9726 51.3697 28.4704 52.0391 28.8666 52.7695C28.5483 54.9082 25.8254 56.1664 24.315 56.705C23.3312 55.7408 21.5196 54.3686 19.0019 54.1245C16.9061 53.9215 14.7827 54.5281 12.6633 55.9221C12.8759 54.0047 13.7268 52.194 15.1443 50.7766ZM12.7266 60.0517C14.8263 58.1314 16.8179 57.2382 18.6501 57.4028C20.0849 57.5316 21.1855 58.3018 21.831 58.8897C20.4458 61.9859 20.6496 65.4474 22.4418 68.9769C22.9166 69.9119 23.4499 70.7439 23.9549 71.4433C20.7756 72.7351 17.0356 72.0173 14.5704 69.5518C12.0571 67.0387 11.3387 63.3186 12.7266 60.0517ZM4.34847 68.3456C4.25101 68.3896 4.16472 68.3741 4.10976 68.3535C4.05447 68.3326 3.97949 68.2875 3.93536 68.1902L3.32455 66.8431C3.25351 66.6864 3.32324 66.501 3.47976 66.43L8.74403 64.0431C8.78012 64.7751 8.88365 65.5009 9.05378 66.212L4.34847 68.3456ZM8.69793 77.1917C8.62705 77.2626 8.54617 77.2775 8.49088 77.2775C8.43543 77.2775 8.35455 77.2626 8.28383 77.1917L7.21087 76.1187C7.09668 76.0045 7.09668 75.8186 7.21087 75.7044L11.6571 71.2584C11.8428 71.4718 12.0364 71.6805 12.2392 71.8831C12.5367 72.1805 12.8482 72.4586 13.1708 72.719L8.69793 77.1917ZM18.1655 80.592L16.7654 80.0656C16.6087 80.0067 16.5291 79.8311 16.588 79.6744L18.2994 75.1237C19.0094 75.268 19.7315 75.3473 20.4564 75.3629L18.5566 80.415C18.4979 80.5715 18.3231 80.6516 18.1655 80.592ZM33.9194 68.5354C32.2959 70.159 30.1363 71.0439 27.8954 71.0646C27.3443 70.4704 26.2068 69.1364 25.3429 67.4081C23.9905 64.7026 23.8667 62.2042 24.9675 59.9715C26.7081 59.4121 30.4344 57.8789 31.7362 54.7151C32.5388 55.1251 33.2778 55.6588 33.9194 56.3003C37.2927 59.6734 37.2927 65.1621 33.9194 68.5354ZM35.5991 53.3695C34.4616 52.39 33.1487 51.6278 31.7325 51.1348C31.5848 50.8664 31.4262 50.6047 31.2587 50.3489H38.2311C37.3303 51.3507 36.4527 52.3575 35.5991 53.3695ZM41.3008 47.0519H29.15C30.3145 45.6302 31.5315 44.221 32.7999 42.8247H45.5459C44.0826 44.2217 42.6685 45.6313 41.3008 47.0519ZM49.1151 39.5278H35.9134C37.171 38.2472 38.4728 36.9786 39.8183 35.7224V35.7839H53.4493C51.9656 37.0208 50.5211 38.269 49.1151 39.5278ZM52.3853 29.8291C51.5072 29.408 50.6999 28.8423 50.0069 28.1491C48.3728 26.5151 47.473 24.3424 47.473 22.0316C47.473 19.7206 48.3728 17.5481 50.0069 15.914C51.6498 14.2709 53.8414 13.3804 56.1107 13.3804C56.3333 13.3804 56.5569 13.392 56.7807 13.4094C56.8375 13.4381 56.8957 13.4649 56.9569 13.4874C58.8108 14.1722 59.9579 15.1701 60.4637 16.5386C61.2545 18.6778 60.3151 21.2308 59.8214 22.328C55.4005 23.8735 53.2558 27.1497 52.3853 29.8291ZM68.7822 33.6728C65.4088 37.0461 59.92 37.0461 56.5468 33.6728C56.2071 33.3332 55.9017 32.9663 55.6255 32.5795L55.5578 32.4869C55.4498 32.3314 55.3463 32.1731 55.2487 32.011C55.4743 30.6058 56.5011 26.8975 61.0814 25.3852C63.4477 27.2281 65.7213 27.7879 67.6083 27.7879C68.4324 27.7879 69.183 27.6812 69.835 27.5285C70.3692 27.4033 70.8579 27.242 71.3014 27.0666C71.4458 29.511 70.5557 31.8993 68.7822 33.6728ZM71.6156 23.1808C71.2164 23.4635 70.2524 24.0677 68.9643 24.3452C66.9841 24.7714 65.0403 24.2613 63.1765 22.8347C63.8436 21.0669 64.5683 18.1569 63.5637 15.4159C63.1563 14.3042 62.5152 13.3371 61.6509 12.5169C64.3986 12.0131 67.3143 12.8559 69.3559 14.8976C71.5616 17.1031 72.385 20.2382 71.6156 23.1808ZM80.663 17.2642C80.6305 17.3504 80.5471 17.508 80.3517 17.5966L75.1513 19.9545C75.088 19.2327 74.9588 18.5183 74.7646 17.8206L79.483 15.6812C79.7818 15.5457 80.1352 15.6786 80.2705 15.9772L80.6477 16.8091C80.7365 17.0045 80.6953 17.1781 80.663 17.2642Z" fill="#55C8FA"/>
<path d="M51.341 22.2632C51.0996 22.2632 50.8547 22.2101 50.623 22.0977C49.8038 21.7005 49.4616 20.7145 49.859 19.8951C50.814 17.9254 52.6643 16.3138 52.8723 16.1365C53.565 15.5455 54.6056 15.6284 55.1963 16.321C55.7866 17.0131 55.7047 18.0522 55.0137 18.6434C54.5923 19.0053 53.3783 20.1936 52.8255 21.3336C52.5407 21.921 51.9529 22.2632 51.341 22.2632Z" fill="#55C8FA"/>
</g>
<defs>
<clipPath id="clip0_679_15806">
<rect width="84" height="84" fill="white"/>
</clipPath>
</defs>
</svg>
