<svg width="129" height="129" viewBox="0 0 129 129" fill="none" xmlns="http://www.w3.org/2000/svg">
<g clip-path="url(#clip0_114_4768)">
<mask id="mask0_114_4768" style="mask-type:luminance" maskUnits="userSpaceOnUse" x="0" y="0" width="129" height="129">
<path d="M0 1.52588e-05H129V129H0V1.52588e-05Z" fill="white"/>
</mask>
<g mask="url(#mask0_114_4768)">
<path d="M49.3142 90.3948C49.3142 91.7861 48.1862 92.9143 46.7947 92.9143C45.4034 92.9143 44.2752 91.7861 44.2752 90.3948C44.2752 89.0032 45.4034 87.8752 46.7947 87.8752C48.1862 87.8752 49.3142 89.0032 49.3142 90.3948Z" fill="#FF5B2E" fill-opacity="0.3"/>
<path d="M58.5646 92.925C58.5646 94.3166 57.4366 95.4446 56.0451 95.4446C54.6536 95.4446 53.5256 94.3166 53.5256 92.925C53.5256 91.5335 54.6536 90.4055 56.0451 90.4055C57.4366 90.4055 58.5646 91.5335 58.5646 92.925Z" fill="#FF5B2E" fill-opacity="0.3"/>
<path d="M21.7186 90.3945C21.7186 91.7858 22.8466 92.9141 24.2381 92.9141C25.6297 92.9141 26.7577 91.7858 26.7577 90.3945C26.7577 89.003 25.6297 87.875 24.2381 87.875C22.8466 87.875 21.7186 89.003 21.7186 90.3945Z" fill="#FF5B2E" fill-opacity="0.3"/>
<path d="M12.4678 92.925C12.4678 94.3166 13.5958 95.4446 14.9873 95.4446C16.3789 95.4446 17.5069 94.3166 17.5069 92.925C17.5069 91.5335 16.3789 90.4055 14.9873 90.4055C13.5958 90.4055 12.4678 91.5335 12.4678 92.925Z" fill="#FF5B2E" fill-opacity="0.3"/>
<path d="M120.756 50.4623C121.695 51.4885 121.626 53.0821 120.6 54.0221C119.574 54.9619 117.98 54.8924 117.04 53.8662C116.1 52.8402 116.17 51.2464 117.196 50.3063C118.222 49.3666 119.816 49.4363 120.756 50.4623Z" fill="#FF5B2E" fill-opacity="0.3"/>
<path d="M68.5197 89.6108C67.724 96.6488 60.6703 102.155 52.0885 102.155C49.8706 102.155 47.7544 101.786 45.8235 101.118C43.1583 100.201 40.8416 98.7106 39.0903 96.8333C38.6131 96.3228 38.1785 95.7836 37.7892 95.2193C36.3846 93.1772 35.5826 90.8091 35.5826 88.2817L35.5808 88.2825C35.5808 91.5077 34.2714 94.4767 32.0716 96.834C29.0502 100.073 24.35 102.155 19.0734 102.155C10.5062 102.155 3.46158 96.67 2.64551 89.6488" stroke="#FF5B2E" stroke-opacity="0.3" stroke-width="5.03906" stroke-miterlimit="10" stroke-linecap="round" stroke-linejoin="round"/>
<path d="M8.80469 66.3994C8.80469 62.8431 11.6878 59.96 15.2441 59.96C18.8004 59.96 21.6835 62.8431 21.6835 66.3994" stroke="#FF5B2E" stroke-opacity="0.3" stroke-width="5.03906" stroke-miterlimit="10" stroke-linecap="round" stroke-linejoin="round"/>
<path d="M62.361 66.3997C62.361 62.8433 59.4782 59.9602 55.9216 59.9602C52.3653 59.9602 49.4822 62.8433 49.4822 66.3997" stroke="#FF5B2E" stroke-opacity="0.3" stroke-width="5.03906" stroke-miterlimit="10" stroke-linecap="round" stroke-linejoin="round"/>
<path d="M25.003 101.753V109.591C25.003 115.432 29.7394 120.168 35.5825 120.168C40.4074 120.168 44.4777 116.939 45.7485 112.526C46.0189 111.593 46.162 110.609 46.162 109.591V101.762" stroke="#FF5B2E" stroke-opacity="0.3" stroke-width="5.03906" stroke-miterlimit="10" stroke-linecap="round" stroke-linejoin="round"/>
<path d="M35.5822 93.4096V107.355" stroke="#FF5B2E" stroke-opacity="0.3" stroke-width="5.03906" stroke-miterlimit="10" stroke-linecap="round" stroke-linejoin="round"/>
<path d="M31.9892 85.79L28.7798 80.2311C27.1829 77.4652 29.1789 74.0084 32.3724 74.0084H38.7914C41.9847 74.0084 43.9807 77.4652 42.384 80.2311L39.1747 85.79C37.5778 88.5557 33.5858 88.5557 31.9892 85.79Z" stroke="#FF5B2E" stroke-opacity="0.3" stroke-width="5.03906" stroke-miterlimit="10" stroke-linecap="round" stroke-linejoin="round"/>
<path d="M100.565 24.6367C97.4896 21.5611 92.5032 21.5611 89.4276 24.6367C86.352 27.7123 86.352 32.6987 89.4276 35.7743L100.565 46.9116L111.702 35.7743C114.778 32.6987 114.778 27.7123 111.702 24.6367C108.627 21.5611 103.641 21.5611 100.565 24.6367Z" stroke="#FF5B2E" stroke-opacity="0.3" stroke-width="5.03906" stroke-miterlimit="10" stroke-linecap="round" stroke-linejoin="round"/>
<path d="M124.637 43.8936C125.746 41.0161 126.354 37.8893 126.354 34.6207C126.354 20.3778 114.808 8.83132 100.565 8.83132C86.322 8.83132 74.7755 20.3778 74.7755 34.6207C74.7755 40.1503 76.5164 45.2731 79.4794 49.4719L74.7755 59.9604L87.1451 56.6472C91.0546 59.0342 95.649 60.4104 100.565 60.4104C103.965 60.4104 107.211 59.7523 110.184 58.5568" stroke="#FF5B2E" stroke-opacity="0.3" stroke-width="5.03906" stroke-miterlimit="10" stroke-linecap="round" stroke-linejoin="round"/>
</g>
</g>
<defs>
<clipPath id="clip0_114_4768">
<rect width="129" height="129" fill="white"/>
</clipPath>
</defs>
</svg>
