<svg width="92" height="92" viewBox="0 0 92 92" fill="none" xmlns="http://www.w3.org/2000/svg">
<path d="M41.2502 42.5484C40.4705 42.9939 39.9109 43.7167 39.6748 44.5832L38.9025 47.4162C38.6662 48.2826 38.7815 49.1892 39.2272 49.9691C39.5241 50.4885 39.9437 50.91 40.4471 51.2036C40.6994 51.3507 40.9727 51.4658 41.262 51.5446C42.1284 51.7809 43.0351 51.6655 43.8148 51.2199C44.5946 50.7743 45.1541 50.0516 45.3903 49.185L46.1625 46.3519C46.3987 45.4855 46.2835 44.5789 45.8378 43.7991C45.3924 43.0194 44.6699 42.46 43.8031 42.2236C42.9366 41.9873 42.0299 42.1026 41.2502 42.5484ZM42.2242 44.2525C42.5488 44.0671 42.926 44.019 43.2867 44.1175C43.4073 44.1504 43.5201 44.1981 43.6234 44.2584C44.157 44.5696 44.4387 45.2118 44.2687 45.8357L43.4964 48.6688C43.3981 49.0294 43.1651 49.3301 42.8407 49.5157C42.5161 49.7012 42.1389 49.7492 41.7782 49.6508C41.0328 49.4475 40.5933 48.6769 40.7961 47.9326L41.5684 45.0996C41.6668 44.7387 41.8997 44.4379 42.2242 44.2525Z" fill="white"/>
<path d="M66.4388 55.4246C65.8065 54.7871 64.9637 54.4333 64.0656 54.4294C63.1676 54.4255 62.3218 54.7716 61.6839 55.4038L59.5983 57.4711C58.9605 58.1034 58.607 58.9462 58.603 59.8443C58.5992 60.7423 58.9453 61.5883 59.5775 62.226C59.7887 62.439 60.0233 62.6202 60.2756 62.7673C60.7788 63.0608 61.3526 63.2186 61.9507 63.2212C62.8489 63.2251 63.6947 62.8789 64.3326 62.2467L66.418 60.1795C67.0558 59.5472 67.4093 58.7044 67.4133 57.8063C67.4171 56.9083 67.071 56.0623 66.4388 55.4246ZM65.0362 58.7855L62.9507 60.8528C62.4028 61.396 61.5147 61.3923 60.9717 60.844C60.7084 60.5786 60.5645 60.2265 60.566 59.8528C60.5677 59.479 60.7147 59.1282 60.9802 58.8651L63.0658 56.7978C63.525 56.3427 64.2226 56.2716 64.7563 56.5829C64.8595 56.6431 64.9568 56.7176 65.0448 56.8065C65.308 57.072 65.4519 57.424 65.4504 57.7978C65.4486 58.1715 65.3016 58.5224 65.0362 58.7855Z" fill="white"/>
<path d="M49.6333 42.3537L48.154 44.8903C47.22 46.4918 47.763 48.5546 49.3645 49.4886C50.9661 50.4226 53.0288 49.8795 53.9628 48.2779L55.4421 45.7413C56.3761 44.1397 55.8331 42.077 54.2315 41.143C52.6301 40.2091 50.5672 40.7522 49.6333 42.3537ZM53.7465 44.7525L52.2672 47.2891C51.8785 47.9556 51.0198 48.1816 50.3534 47.793C49.6869 47.4043 49.4608 46.5458 49.8496 45.8792L51.3289 43.3425C51.7176 42.6761 52.5762 42.4499 53.2427 42.8386C53.9093 43.2274 54.1352 44.086 53.7465 44.7525Z" fill="white"/>
<path d="M57.647 47.0256L56.1677 49.5622C55.2337 51.1637 55.7767 53.2265 57.3783 54.1605C58.9797 55.0945 61.0425 54.5514 61.9765 52.9498L63.4558 50.4132C64.3898 48.8116 63.8467 46.7489 62.2453 45.8149C60.6438 44.881 58.5809 45.4241 57.647 47.0256ZM61.7603 49.4244L60.281 51.961C59.8923 52.6275 59.0337 52.8537 58.3673 52.465C57.7006 52.0762 57.4746 51.2177 57.8634 50.5511L59.3427 48.0145C59.7314 47.348 60.5901 47.1219 61.2566 47.5106C61.923 47.8993 62.149 48.7579 61.7603 49.4244Z" fill="white"/>
<path d="M24.2033 57.6734L23.8973 57.7541L23.8168 57.448C23.5907 56.5898 23.0441 55.871 22.2774 55.4239C21.5108 54.9768 20.616 54.855 19.7576 55.081C18.8993 55.3069 18.1805 55.8536 17.7333 56.6203C17.2862 57.387 17.1644 58.2818 17.3904 59.1401L18.7527 64.3147C18.8659 64.7441 19.1431 65.0876 19.4994 65.2952C19.8558 65.503 20.2913 65.5752 20.7207 65.4623L25.8951 64.1C26.7534 63.874 27.4723 63.3274 27.9194 62.5607C28.3665 61.7941 28.4884 60.8991 28.2623 60.0407C27.796 58.2691 25.9749 57.2072 24.2033 57.6734ZM25.3954 62.2017L20.5613 63.4744L19.2887 58.6404C19.0977 57.9152 19.5323 57.17 20.2575 56.9791C20.6086 56.8867 20.9748 56.9365 21.2886 57.1195C21.6024 57.3025 21.8262 57.5967 21.9186 57.9479L22.249 59.203C22.3872 59.7272 22.9239 60.0402 23.4481 59.9022L24.703 59.5718C25.428 59.3811 26.1732 59.8154 26.3641 60.5406C26.555 61.2654 26.1204 62.0107 25.3954 62.2017Z" fill="white"/>
<path d="M47.6418 78.2658C47.3687 78.734 47.5269 79.3349 47.9952 79.608L53.433 82.7793C53.9013 83.0524 54.5022 82.8941 54.7753 82.4259C55.0483 81.9577 54.8902 81.3568 54.4219 81.0837L48.984 77.9124C48.5158 77.6393 47.9149 77.7976 47.6418 78.2658Z" fill="white"/>
<path d="M53.967 89.4519C55.0445 90.0803 56.2994 90.2411 57.5006 89.9047C58.7017 89.5682 59.6904 88.7789 60.2847 87.6822L80.0204 51.2651C80.2976 50.7538 80.4647 50.2008 80.5169 49.6212L81.3039 40.9081C81.3339 40.5763 81.4386 40.2486 81.6066 39.9606L85.2287 33.7497C86.0991 32.2571 85.593 30.3346 84.1004 29.4642L57.7003 14.0681C56.2077 13.1976 54.2852 13.7037 53.4148 15.1963L49.7927 21.4072C49.6247 21.6953 49.3911 21.9478 49.117 22.1372L41.9208 27.1126C41.4423 27.4434 41.0433 27.8612 40.7347 28.3541L36.7599 34.7041C36.4723 35.1636 36.6115 35.7692 37.071 36.0567C37.08 36.0624 37.0889 36.0677 37.0978 36.0729C37.5538 36.3389 38.1416 36.1962 38.4236 35.7456L42.3985 29.3956C42.5646 29.1302 42.7795 28.9053 43.0372 28.7271L50.2332 23.7518C50.7424 23.3998 51.1763 22.931 51.4883 22.3961L55.1104 16.1852C55.4356 15.6275 56.1539 15.4385 56.7114 15.7637L83.1116 31.1598C83.6692 31.485 83.8583 32.2032 83.5331 32.7608L79.911 38.9717C79.599 39.5067 79.4048 40.1153 79.349 40.7317L78.5621 49.4447C78.534 49.7568 78.444 50.0546 78.2949 50.33L58.5591 86.7472C58.22 87.3727 57.6562 87.8228 56.9712 88.0146C56.2862 88.2065 55.5704 88.1148 54.9558 87.7563L35.8438 76.6105C36.2254 76.2873 36.523 75.8691 36.7015 75.3875L39.9522 66.6159C40.93 67.1836 42.0289 67.5042 43.1539 67.5465C43.7963 67.5705 44.381 67.9117 44.7181 68.4587C45.3771 69.528 46.3213 70.3989 47.4495 70.9767C50.6273 72.6056 54.5856 71.4983 56.461 68.456C57.9939 65.9697 57.793 62.7723 55.961 60.4999C55.8377 60.347 55.7774 60.1503 55.7911 59.9461C55.9684 57.3108 54.6624 54.8479 52.3828 53.5185C50.1032 52.1891 47.3165 52.2651 45.11 53.7172C44.9392 53.8297 44.7383 53.874 44.5444 53.8419C42.5865 53.5187 40.608 54.0581 39.0978 55.2706C38.5147 54.241 37.6623 53.3467 36.5685 52.7088C35.4504 52.0568 34.2042 51.7359 32.9285 51.7666C32.3296 50.742 31.4809 49.8933 30.4438 49.2885C30.322 49.2174 30.1976 49.1514 30.0719 49.0881L36.1531 39.3731C36.4408 38.9137 36.3015 38.308 35.842 38.0205C35.8332 38.0149 35.8242 38.0095 35.8152 38.0043C35.3592 37.7384 34.7714 37.8811 34.4894 38.3317L28.6404 47.6756C27.8671 46.302 26.7391 45.1485 25.361 44.3448C25.1275 44.2086 24.885 44.0814 24.6406 43.9669C24.1496 43.7371 23.5654 43.9487 23.3355 44.4395C23.1056 44.9303 23.3189 45.5151 23.8081 45.7444C23.9994 45.8341 24.1892 45.9335 24.3721 46.0402C25.8216 46.8855 26.9172 48.2269 27.4567 49.8172C27.5642 50.1335 27.825 50.3736 28.1492 50.4542C28.6088 50.5685 29.048 50.7468 29.4549 50.984C30.3421 51.5015 31.0368 52.2679 31.4641 53.2004C31.6424 53.5895 32.0517 53.8181 32.4763 53.7657C33.561 53.6321 34.6341 53.853 35.5796 54.4044C37.6828 55.6309 38.5483 58.1757 37.7443 60.3871L15.6131 47.4806C16.7463 46.1771 18.3246 45.337 20.0751 45.1359C20.6136 45.0741 21 44.5875 20.9383 44.049C20.8765 43.5105 20.3898 43.1241 19.8513 43.1859C17.4826 43.4578 15.3579 44.6425 13.8929 46.4774L13.2103 46.0793C11.9719 45.3571 10.4019 45.6281 9.47718 46.7236L2.24458 55.2928C1.68222 55.9589 1.4448 56.8336 1.59308 57.6927C1.74125 58.5517 2.25827 59.2961 3.01124 59.7352L53.967 89.4518L53.967 89.4519ZM44.2246 55.7787C44.9071 55.8914 45.6048 55.7416 46.1892 55.3568C47.7686 54.3177 49.7629 54.2629 51.3941 55.2142C53.0252 56.1654 53.9596 57.9282 53.8328 59.8146C53.7859 60.5129 53.9991 61.1939 54.433 61.7321C55.744 63.3581 55.8874 65.6463 54.7902 67.426C53.4485 69.6025 50.6175 70.395 48.3448 69.2301C47.5366 68.8156 46.86 68.1928 46.389 67.4288C45.7076 66.3229 44.5255 65.6335 43.2274 65.585C42.3307 65.5514 41.4552 65.2691 40.6965 64.7697C40.6786 64.7578 40.66 64.7478 40.6416 64.7372C41.0403 63.48 40.5566 62.118 39.4562 61.3938C40.026 60.0507 40.1409 58.6014 39.8489 57.242C40.9665 56.0693 42.6048 55.5113 44.2246 55.7787ZM3.5274 57.3589C3.47733 57.0684 3.55438 56.7843 3.74459 56.5589L10.9773 47.9898C11.2856 47.6245 11.8089 47.5342 12.2218 47.7749L38.332 63.002C38.7447 63.2427 38.9239 63.7427 38.7578 64.1909L34.8611 74.7056C34.7587 74.982 34.5493 75.1891 34.2718 75.2885C33.9943 75.388 33.7012 75.361 33.4465 75.2125L4.00003 58.0397C3.74535 57.8912 3.57748 57.6494 3.5274 57.3589Z" fill="white"/>
<path d="M79.1849 32.9126L74.007 29.8929C73.5387 29.6197 72.9378 29.778 72.6648 30.2462C72.3917 30.7145 72.5498 31.3154 73.0181 31.5885L78.1961 34.6082C78.6644 34.8813 79.2653 34.723 79.5383 34.2548C79.8114 33.7866 79.6533 33.1857 79.1849 32.9126Z" fill="white"/>
<path d="M70.3125 27.7383L57.121 20.0452C56.6527 19.7721 56.0518 19.9304 55.7788 20.3986C55.5057 20.8668 55.6638 21.4677 56.1321 21.7408L69.3237 29.4339C69.792 29.707 70.3929 29.5488 70.6659 29.0805C70.939 28.6123 70.7808 28.0114 70.3125 27.7383Z" fill="white"/>
</svg>
