<svg width="92" height="92" viewBox="0 0 92 92" fill="none" xmlns="http://www.w3.org/2000/svg">
<g opacity="0.24" clip-path="url(#clip0_127_4719)">
<path d="M41.2502 42.5503C40.4705 42.9959 39.9109 43.7186 39.6748 44.5851L38.9025 47.4182C38.6662 48.2846 38.7815 49.1912 39.2272 49.9711C39.5241 50.4905 39.9437 50.912 40.4471 51.2056C40.6994 51.3527 40.9727 51.4677 41.262 51.5466C42.1284 51.7828 43.0351 51.6674 43.8148 51.2219C44.5946 50.7762 45.1541 50.0536 45.3903 49.187L46.1625 46.3539C46.3987 45.4874 46.2835 44.5808 45.8378 43.801C45.3924 43.0214 44.6699 42.462 43.8031 42.2255C42.9366 41.9892 42.0299 42.1046 41.2502 42.5503ZM42.2242 44.2545C42.5488 44.069 42.926 44.021 43.2867 44.1194C43.4073 44.1523 43.5201 44.2001 43.6234 44.2603C44.157 44.5715 44.4387 45.2138 44.2687 45.8376L43.4964 48.6707C43.3981 49.0313 43.1651 49.3321 42.8407 49.5177C42.5161 49.7031 42.1389 49.7511 41.7782 49.6527C41.0328 49.4495 40.5933 48.6789 40.7961 47.9346L41.5684 45.1015C41.6668 44.7406 41.8997 44.4399 42.2242 44.2545Z" fill="#FF5B2E"/>
<path d="M66.4388 55.426C65.8065 54.7886 64.9637 54.4348 64.0656 54.4309C63.1676 54.427 62.3218 54.7731 61.6839 55.4053L59.5983 57.4726C58.9605 58.1049 58.607 58.9476 58.603 59.8457C58.5992 60.7438 58.9453 61.5897 59.5775 62.2275C59.7887 62.4405 60.0233 62.6217 60.2756 62.7688C60.7788 63.0623 61.3526 63.2201 61.9507 63.2226C62.8489 63.2265 63.6947 62.8804 64.3326 62.2482L66.418 60.1809C67.0558 59.5487 67.4093 58.7059 67.4133 57.8078C67.4171 56.9097 67.071 56.0638 66.4388 55.426ZM65.0362 58.787L62.9507 60.8543C62.4028 61.3974 61.5147 61.3938 60.9717 60.8455C60.7084 60.58 60.5645 60.228 60.566 59.8542C60.5677 59.4804 60.7147 59.1297 60.9802 58.8666L63.0658 56.7993C63.525 56.3442 64.2226 56.273 64.7563 56.5843C64.8595 56.6445 64.9568 56.7191 65.0448 56.808C65.308 57.0735 65.4519 57.4255 65.4504 57.7993C65.4486 58.173 65.3016 58.5238 65.0362 58.787Z" fill="#FF5B2E"/>
<path d="M49.6333 42.3547L48.154 44.8913C47.22 46.4928 47.763 48.5556 49.3645 49.4896C50.9661 50.4236 53.0288 49.8805 53.9628 48.2789L55.4421 45.7423C56.3761 44.1407 55.8331 42.078 54.2315 41.144C52.6301 40.21 50.5672 40.7532 49.6333 42.3547ZM53.7465 44.7534L52.2672 47.2901C51.8785 47.9566 51.0198 48.1826 50.3534 47.7939C49.6869 47.4053 49.4608 46.5468 49.8496 45.8802L51.3289 43.3435C51.7176 42.677 52.5762 42.4509 53.2427 42.8396C53.9093 43.2283 54.1352 44.0869 53.7465 44.7534Z" fill="#FF5B2E"/>
<path d="M57.6469 47.028L56.1675 49.5646C55.2336 51.1661 55.7766 53.229 57.3782 54.163C58.9796 55.0969 61.0424 54.5538 61.9764 52.9523L63.4557 50.4156C64.3897 48.8141 63.8466 46.7513 62.2452 45.8174C60.6437 44.8834 58.5808 45.4266 57.6469 47.028ZM61.7602 49.4268L60.2809 51.9635C59.8922 52.63 59.0336 52.8561 58.3671 52.4674C57.7005 52.0787 57.4745 51.2202 57.8633 50.5536L59.3426 48.0169C59.7313 47.3504 60.5899 47.1244 61.2564 47.5131C61.9229 47.9017 62.1489 48.7603 61.7602 49.4268Z" fill="#FF5B2E"/>
<path d="M24.2033 57.6754L23.8973 57.756L23.8168 57.45C23.5907 56.5918 23.0441 55.8729 22.2774 55.4258C21.5108 54.9787 20.616 54.8569 19.7576 55.0829C18.8993 55.3089 18.1805 55.8555 17.7333 56.6223C17.2862 57.3889 17.1644 58.2838 17.3904 59.1421L18.7527 64.3167C18.8659 64.7461 19.1431 65.0895 19.4994 65.2972C19.8558 65.505 20.2913 65.5772 20.7207 65.4642L25.8951 64.1019C26.7534 63.876 27.4723 63.3293 27.9194 62.5627C28.3665 61.796 28.4884 60.9011 28.2623 60.0427C27.796 58.2711 25.9749 57.2091 24.2033 57.6754ZM25.3954 62.2037L20.5613 63.4763L19.2887 58.6423C19.0977 57.9172 19.5323 57.172 20.2575 56.9811C20.6086 56.8886 20.9748 56.9384 21.2886 57.1214C21.6024 57.3044 21.8262 57.5987 21.9186 57.9498L22.249 59.2049C22.3872 59.7292 22.9239 60.0422 23.4481 59.9042L24.703 59.5738C25.428 59.3831 26.1732 59.8174 26.3641 60.5425C26.555 61.2674 26.1204 62.0127 25.3954 62.2037Z" fill="#FF5B2E"/>
<path d="M47.6419 78.2668C47.3689 78.735 47.527 79.3359 47.9953 79.609L53.4331 82.7802C53.9015 83.0534 54.5023 82.8951 54.7754 82.4269C55.0484 81.9586 54.8903 81.3578 54.422 81.0846L48.9842 77.9134C48.5159 77.6403 47.915 77.7985 47.6419 78.2668Z" fill="#FF5B2E"/>
<path d="M53.967 89.4549C55.0445 90.0833 56.2994 90.244 57.5006 89.9076C58.7017 89.5712 59.6904 88.7818 60.2847 87.6852L80.0204 51.268C80.2976 50.7567 80.4647 50.2037 80.5169 49.6242L81.3039 40.9111C81.3339 40.5792 81.4386 40.2516 81.6066 39.9635L85.2287 33.7526C86.0991 32.26 85.593 30.3376 84.1004 29.4671L57.7003 14.071C56.2077 13.2005 54.2852 13.7067 53.4148 15.1993L49.7927 21.4102C49.6247 21.6982 49.3911 21.9507 49.117 22.1402L41.9208 27.1155C41.4423 27.4463 41.0433 27.8641 40.7347 28.3571L36.7599 34.7071C36.4723 35.1665 36.6115 35.7722 37.071 36.0597C37.08 36.0653 37.0889 36.0707 37.0978 36.0759C37.5538 36.3418 38.1416 36.1991 38.4236 35.7485L42.3985 29.3985C42.5646 29.1331 42.7795 28.9082 43.0372 28.73L50.2332 23.7547C50.7424 23.4027 51.1763 22.9339 51.4883 22.399L55.1104 16.1881C55.4356 15.6305 56.1539 15.4415 56.7114 15.7666L83.1116 31.1627C83.6692 31.4879 83.8583 32.2061 83.5331 32.7638L79.911 38.9747C79.599 39.5096 79.4048 40.1183 79.349 40.7346L78.5621 49.4476C78.534 49.7598 78.444 50.0575 78.2949 50.3329L58.5591 86.7501C58.22 87.3756 57.6562 87.8258 56.9712 88.0175C56.2862 88.2094 55.5704 88.1177 54.9558 87.7593L35.8438 76.6134C36.2254 76.2902 36.523 75.8721 36.7015 75.3905L39.9522 66.6188C40.93 67.1865 42.0289 67.5072 43.1539 67.5494C43.7963 67.5735 44.381 67.9146 44.7181 68.4616C45.3771 69.5309 46.3213 70.4019 47.4495 70.9797C50.6273 72.6085 54.5856 71.5012 56.461 68.4589C57.9939 65.9726 57.793 62.7753 55.961 60.5028C55.8377 60.3499 55.7774 60.1532 55.7911 59.949C55.9684 57.3137 54.6624 54.8508 52.3828 53.5214C50.1032 52.192 47.3165 52.268 45.11 53.7201C44.9392 53.8326 44.7383 53.8769 44.5444 53.8449C42.5865 53.5217 40.608 54.061 39.0978 55.2736C38.5147 54.2439 37.6623 53.3496 36.5685 52.7117C35.4504 52.0597 34.2042 51.7389 32.9285 51.7695C32.3296 50.7449 31.4809 49.8962 30.4438 49.2914C30.322 49.2203 30.1976 49.1543 30.0719 49.091L36.1531 39.3761C36.4408 38.9166 36.3015 38.311 35.842 38.0235C35.8332 38.0179 35.8242 38.0125 35.8152 38.0073C35.3592 37.7413 34.7714 37.884 34.4894 38.3346L28.6404 47.6786C27.8671 46.3049 26.7391 45.1514 25.361 44.3477C25.1275 44.2115 24.885 44.0844 24.6406 43.9699C24.1496 43.74 23.5654 43.9516 23.3355 44.4424C23.1056 44.9333 23.3189 45.518 23.8081 45.7474C23.9994 45.837 24.1892 45.9365 24.3721 46.0431C25.8216 46.8885 26.9172 48.2298 27.4567 49.8202C27.5642 50.1364 27.825 50.3765 28.1492 50.4571C28.6088 50.5714 29.048 50.7497 29.4549 50.987C30.3421 51.5044 31.0368 52.2708 31.4641 53.2034C31.6424 53.5924 32.0517 53.821 32.4763 53.7687C33.561 53.635 34.6341 53.8559 35.5796 54.4073C37.6828 55.6339 38.5483 58.1787 37.7443 60.39L15.6131 47.4835C16.7463 46.18 18.3246 45.3399 20.0751 45.1389C20.6136 45.0771 21 44.5904 20.9383 44.052C20.8765 43.5134 20.3898 43.1271 19.8513 43.1889C17.4826 43.4608 15.3579 44.6454 13.8929 46.4803L13.2103 46.0822C11.9719 45.36 10.4019 45.631 9.47718 46.7266L2.24458 55.2958C1.68222 55.9618 1.4448 56.8365 1.59308 57.6956C1.74125 58.5546 2.25827 59.299 3.01124 59.7382L53.967 89.4548L53.967 89.4549ZM44.2246 55.7816C44.9071 55.8944 45.6048 55.7445 46.1892 55.3598C47.7686 54.3206 49.7629 54.2658 51.3941 55.2171C53.0252 56.1684 53.9596 57.9311 53.8328 59.8175C53.7859 60.5158 53.9991 61.1968 54.433 61.735C55.744 63.361 55.8874 65.6493 54.7902 67.4289C53.4485 69.6054 50.6175 70.3979 48.3448 69.233C47.5366 68.8186 46.86 68.1957 46.389 67.4318C45.7076 66.3258 44.5255 65.6365 43.2274 65.5879C42.3307 65.5543 41.4552 65.272 40.6965 64.7726C40.6786 64.7608 40.66 64.7507 40.6416 64.7402C41.0403 63.4829 40.5566 62.1209 39.4562 61.3967C40.026 60.0536 40.1409 58.6044 39.8489 57.2449C40.9665 56.0722 42.6048 55.5143 44.2246 55.7816ZM3.5274 57.3618C3.47733 57.0713 3.55438 56.7872 3.74459 56.5618L10.9773 47.9927C11.2856 47.6274 11.8089 47.5371 12.2218 47.7779L38.332 63.0049C38.7447 63.2456 38.9239 63.7456 38.7578 64.1938L34.8611 74.7085C34.7587 74.9849 34.5493 75.192 34.2718 75.2915C33.9943 75.3909 33.7012 75.3639 33.4465 75.2154L4.00003 58.0427C3.74535 57.8941 3.57748 57.6523 3.5274 57.3618Z" fill="#FF5B2E"/>
<path d="M79.1849 32.9135L74.007 29.8938C73.5387 29.6207 72.9378 29.779 72.6648 30.2472C72.3917 30.7154 72.5498 31.3163 73.0181 31.5895L78.1961 34.6092C78.6644 34.8823 79.2653 34.724 79.5383 34.2558C79.8114 33.7876 79.6533 33.1867 79.1849 32.9135Z" fill="#FF5B2E"/>
<path d="M70.3125 27.7393L57.121 20.0462C56.6527 19.7731 56.0518 19.9313 55.7788 20.3996C55.5057 20.8678 55.6638 21.4687 56.1321 21.7418L69.3237 29.4349C69.792 29.708 70.3929 29.5497 70.6659 29.0815C70.939 28.6133 70.7808 28.0123 70.3125 27.7393Z" fill="#FF5B2E"/>
</g>
<defs>
<clipPath id="clip0_127_4719">
<rect width="67" height="67" fill="white" transform="translate(34.0045 0.251953) rotate(30.2501)"/>
</clipPath>
</defs>
</svg>
