<svg width="56" height="56" viewBox="0 0 56 56" fill="none" xmlns="http://www.w3.org/2000/svg">
<g clip-path="url(#clip0_87_4780)">
<path d="M11.0375 4.76086L11.9403 7.29924C11.9789 7.40796 12.0554 7.49403 12.152 7.53757L14.4072 8.55366C14.7258 8.69716 14.7258 9.20488 14.4072 9.34838L12.152 10.3645C12.0554 10.408 11.979 10.4941 11.9403 10.6028L11.0375 13.1412C10.9099 13.4998 10.4589 13.4998 10.3313 13.1412L9.42857 10.6028C9.38996 10.4941 9.31339 10.408 9.21682 10.3645L6.96161 9.34838C6.643 9.20488 6.643 8.69716 6.96161 8.55366L9.21682 7.53757C9.31339 7.49403 9.38985 7.40796 9.42857 7.29924L10.3313 4.76086C10.459 4.40222 10.9099 4.40222 11.0375 4.76086Z" fill="#24E9FF" fill-opacity="0.4"/>
<path d="M25.2397 2.12296L25.9093 4.00585C25.9379 4.08646 25.9947 4.15034 26.0663 4.1826L27.7392 4.93631C27.9756 5.04284 27.9756 5.41931 27.7392 5.52584L26.0663 6.27954C25.9947 6.31181 25.9379 6.37568 25.9093 6.45629L25.2397 8.33918C25.1451 8.60518 24.8105 8.60518 24.7159 8.33918L24.0463 6.45629C24.0176 6.37568 23.9609 6.31181 23.8892 6.27954L22.2163 5.52584C21.98 5.41931 21.98 5.04284 22.2163 4.93631L23.8892 4.1826C23.9609 4.15034 24.0176 4.08646 24.0463 4.00585L24.7159 2.12296C24.8105 1.85696 25.1451 1.85696 25.2397 2.12296Z" fill="#24E9FF" fill-opacity="0.4"/>
<path d="M9.78863 24.735C10.8773 24.735 11.7598 23.8525 11.7598 22.7639C11.7598 21.6752 10.8773 20.7927 9.78863 20.7927C8.69999 20.7927 7.81747 21.6752 7.81747 22.7639C7.81747 23.8525 8.69999 24.735 9.78863 24.735Z" fill="#24E9FF" fill-opacity="0.4"/>
<path d="M50.5922 31.7664C50.5922 32.2361 50.2114 32.6167 49.7419 32.6167C49.2722 32.6167 48.8916 32.236 48.8916 31.7664C48.8916 31.2969 49.2723 30.9161 49.7419 30.9161C50.2114 30.9161 50.5922 31.2969 50.5922 31.7664Z" fill="#24E9FF" fill-opacity="0.4"/>
<path d="M41.8011 31.5674L42.7039 34.1058C42.7425 34.2145 42.8191 34.3006 42.9157 34.3441L45.1709 35.3602C45.4895 35.5037 45.4895 36.0115 45.1709 36.155L42.9157 37.1711C42.8191 37.2146 42.7426 37.3007 42.7039 37.4094L41.8011 39.9478C41.6736 40.3064 41.2225 40.3064 41.095 39.9478L40.1922 37.4094C40.1536 37.3007 40.0771 37.2146 39.9805 37.1711L37.7253 36.155C37.4067 36.0115 37.4067 35.5037 37.7253 35.3602L39.9805 34.3441C40.0771 34.3006 40.1535 34.2145 40.1922 34.1058L41.095 31.5674C41.2225 31.2088 41.6736 31.2088 41.8011 31.5674Z" fill="#24E9FF" fill-opacity="0.4"/>
<path d="M55.7671 10.2976L55.5157 9.743C54.9248 8.43991 53.384 7.86055 52.0812 8.4515L50.7962 9.03414L52.6868 7.14348C53.6859 6.14423 53.6859 4.51848 52.6868 3.51934L52.211 3.04356C51.727 2.55958 51.0835 2.29303 50.3989 2.29303C49.7144 2.29303 49.0709 2.55958 48.5868 3.04356L46.4698 5.16051L46.981 3.8012C47.4894 2.44944 46.8033 0.936233 45.4515 0.427748L44.9274 0.230654C44.2727 -0.0155487 43.5612 0.00785751 42.924 0.296826C42.2869 0.585686 41.8004 1.10544 41.5542 1.76015L39.8089 6.40104C39.4359 6.51523 39.0689 6.65676 38.7113 6.82826C36.1752 6.4099 33.6114 7.2265 31.7838 9.05415C30.2793 10.5587 29.4507 12.5591 29.4507 14.6869C29.4507 15.7837 29.6726 16.8458 30.0919 17.8245C25.1047 21.8634 20.8049 26.1311 17.2421 30.5787C14.3509 29.3765 10.89 29.948 8.54196 32.296C6.65218 34.1859 5.84784 36.8327 6.35315 39.4398C6.26292 39.6746 6.1857 39.9118 6.11854 40.1503L1.41235 42.2841C1.41235 42.2841 1.41235 42.2841 1.41224 42.2841C0.204087 42.832 -0.333163 44.2607 0.214587 45.4689L0.621791 46.367C1.02396 47.254 1.90071 47.7794 2.81662 47.7794C3.14824 47.7794 3.48534 47.7104 3.80657 47.5648L5.26345 46.9042L3.25303 48.9147C2.32006 49.8477 2.32006 51.366 3.25303 52.2992L3.96834 53.0145C4.42038 53.4665 5.0214 53.7155 5.66059 53.7155C6.29978 53.7155 6.90079 53.4665 7.35284 53.0145L9.58967 50.7777L9.00145 52.3417C8.53551 53.5806 9.16442 54.9675 10.4033 55.4335L11.3367 55.7845C11.6141 55.8889 11.8988 55.9383 12.1791 55.9383C13.1505 55.9382 14.0669 55.3442 14.4285 54.3828L16.112 49.9062C16.4954 49.7905 16.8725 49.6456 17.2397 49.4696C19.7754 49.8881 22.3397 49.0715 24.1674 47.2437C26.8782 44.5329 27.2223 40.3385 25.201 37.25C26.237 36.0104 27.3281 34.7817 28.4744 33.5651H28.4785V33.5606C31.1995 30.6731 34.2289 27.8542 37.5495 25.1193C38.8373 25.9258 40.3062 26.3314 41.7765 26.3312C43.8162 26.3311 45.8564 25.5546 47.4091 24.0019C49.2989 22.112 50.1033 19.4652 49.5979 16.8581C49.7324 16.5083 49.8402 16.1535 49.9236 15.796L54.4756 13.732C55.1068 13.4459 55.5887 12.9311 55.8328 12.2824C56.0764 11.6337 56.0533 10.9287 55.7671 10.2976ZM50.1411 4.59778C50.2832 4.45559 50.5147 4.45559 50.6568 4.59778L51.1326 5.07356C51.2256 5.16642 51.2394 5.27503 51.2394 5.33136C51.2394 5.38779 51.2256 5.4963 51.1326 5.58915L48.0609 8.66084C47.9734 8.56459 47.8843 8.46944 47.7915 8.37658C47.5504 8.13551 47.2955 7.91348 47.0298 7.70884L50.1411 4.59778ZM43.6114 2.53387C43.6932 2.31665 43.9366 2.2063 44.1538 2.288L44.6779 2.48509C44.8953 2.5668 45.0056 2.81015 44.9239 3.02748L43.7267 6.21084C43.2529 6.11601 42.7711 6.06286 42.2875 6.05411L43.6114 2.53387ZM31.2427 19.7215C31.4121 19.9283 31.5922 20.1279 31.7837 20.3195C32.313 20.8487 32.9146 21.2979 33.566 21.6571H28.9416C29.6907 21.0064 30.4578 20.3611 31.2427 19.7215ZM10.0962 33.8502C11.2207 32.7256 12.6974 32.1636 14.1746 32.1636C15.5184 32.1636 16.8617 32.6308 17.94 33.5618V33.5652H17.9439C18.0493 33.6563 18.153 33.7503 18.253 33.8502C18.6484 34.2456 18.9803 34.6919 19.2444 35.1788C19.0322 36.6046 17.2169 37.4434 16.21 37.8025C15.5541 37.1597 14.3464 36.2449 12.6679 36.0821C11.2708 35.9468 9.85512 36.3512 8.44221 37.2806C8.58396 36.0023 9.15118 34.7951 10.0962 33.8502ZM8.48443 40.0336C9.88421 38.7534 11.2119 38.158 12.4334 38.2677C13.3899 38.3535 14.1237 38.867 14.554 39.2589C13.6305 41.3231 13.7664 43.6308 14.9612 45.9837C15.2777 46.6071 15.6333 47.1617 15.9699 47.628C13.8504 48.4892 11.3571 48.0107 9.71359 46.367C8.03807 44.6916 7.55912 42.2115 8.48443 40.0336ZM2.89898 45.5629C2.83401 45.5922 2.77648 45.5819 2.73984 45.5681C2.70298 45.5542 2.65299 45.5242 2.62357 45.4593L2.21637 44.5612C2.16901 44.4568 2.21549 44.3332 2.31984 44.2858L5.82935 42.6945C5.85342 43.1825 5.92243 43.6664 6.03585 44.1404L2.89898 45.5629ZM5.79862 51.4603C5.75137 51.5075 5.69745 51.5175 5.66059 51.5175C5.62362 51.5175 5.5697 51.5075 5.52256 51.4603L4.80724 50.745C4.73112 50.6688 4.73112 50.5449 4.80724 50.4688L7.77142 47.5047C7.89523 47.647 8.02429 47.7861 8.15948 47.9212C8.35777 48.1195 8.56548 48.3049 8.78051 48.4785L5.79862 51.4603ZM12.1103 53.7272L11.1769 53.3762C11.0725 53.3369 11.0194 53.2199 11.0587 53.1154L12.1996 50.0816C12.6729 50.1778 13.1543 50.2307 13.6376 50.2411L12.3711 53.6092C12.3319 53.7135 12.2154 53.7669 12.1103 53.7272ZM22.6129 45.6894C21.5306 46.7718 20.0909 47.3618 18.5969 47.3755C18.2295 46.9794 17.4712 46.0901 16.8953 44.9379C15.9937 43.1342 15.9111 41.4686 16.645 39.9802C17.8054 39.6072 20.2896 38.5851 21.1575 36.4759C21.6926 36.7492 22.1852 37.105 22.6129 37.5327C24.8618 39.7814 24.8618 43.4406 22.6129 45.6894ZM23.7327 35.5788C22.9744 34.9258 22.0991 34.4177 21.155 34.089C21.0565 33.9101 20.9508 33.7356 20.8391 33.5651H25.4874C24.8869 34.2329 24.3018 34.9042 23.7327 35.5788ZM27.5338 31.3671H19.4333C20.2096 30.4192 21.021 29.4798 21.8666 28.5489H30.3639C29.3884 29.4803 28.4457 30.42 27.5338 31.3671ZM32.7434 26.351H23.9423C24.7806 25.4973 25.6485 24.6516 26.5455 23.8141V23.8551H35.6328C34.6438 24.6797 33.6807 25.5118 32.7434 26.351ZM34.9235 19.8852C34.3382 19.6045 33.7999 19.2273 33.3379 18.7652C32.2486 17.6759 31.6486 16.2274 31.6486 14.6869C31.6486 13.1462 32.2486 11.6979 33.3379 10.6085C34.4332 9.51309 35.8942 8.9194 37.4071 8.9194C37.5555 8.9194 37.7046 8.92717 37.8538 8.93876C37.8917 8.9579 37.9305 8.97573 37.9713 8.99072C39.2072 9.44725 39.972 10.1126 40.3092 11.0249C40.8363 12.451 40.2101 14.153 39.881 14.8845C36.9336 15.9148 35.5039 18.0989 34.9235 19.8852ZM45.8548 22.4477C43.6058 24.6965 39.9467 24.6965 37.6978 22.4477C37.4714 22.2213 37.2678 21.9767 37.0837 21.7188L37.0385 21.6571C36.9666 21.5534 36.8975 21.4479 36.8325 21.3398C36.9829 20.403 37.6674 17.9308 40.721 16.9226C42.2985 18.1512 43.8142 18.5244 45.0722 18.5244C45.6216 18.5244 46.122 18.4533 46.5567 18.3515C46.9128 18.268 47.2386 18.1605 47.5343 18.0436C47.6305 19.6732 47.0371 21.2653 45.8548 22.4477ZM47.7437 15.453C47.4776 15.6415 46.8349 16.0443 45.9762 16.2293C44.6561 16.5134 43.3602 16.1734 42.1177 15.2222C42.5624 14.0437 43.0455 12.1037 42.3758 10.2764C42.1042 9.5353 41.6768 8.89053 41.1006 8.34376C42.9324 8.00787 44.8762 8.56973 46.2373 9.9309C47.7077 11.4012 48.2567 13.4913 47.7437 15.453ZM53.7753 11.5086C53.7537 11.5661 53.6981 11.6712 53.5678 11.7302L50.1009 13.3022C50.0586 12.8209 49.9726 12.3447 49.8431 11.8795L52.9887 10.4533C53.1879 10.3629 53.4234 10.4515 53.5137 10.6506L53.7651 11.2052C53.8243 11.3355 53.7969 11.4512 53.7753 11.5086Z" fill="#24E9FF" fill-opacity="0.4"/>
<path d="M34.2273 14.8416C34.0664 14.8416 33.9031 14.8062 33.7487 14.7313C33.2026 14.4665 32.9744 13.8091 33.2393 13.2629C33.876 11.9497 35.1095 10.8754 35.2482 10.7571C35.71 10.3632 36.4038 10.4184 36.7975 10.8802C37.191 11.3415 37.1365 12.0343 36.6758 12.4284C36.3949 12.6697 35.5855 13.4619 35.217 14.2219C35.0272 14.6135 34.6353 14.8416 34.2273 14.8416Z" fill="#24E9FF" fill-opacity="0.4"/>
</g>
<defs>
<clipPath id="clip0_87_4780">
<rect width="56" height="56" fill="white"/>
</clipPath>
</defs>
</svg>
