<svg width="84" height="84" viewBox="0 0 84 84" fill="none" xmlns="http://www.w3.org/2000/svg">
<g clip-path="url(#clip0_1240_12021)">
<mask id="mask0_1240_12021" style="mask-type:luminance" maskUnits="userSpaceOnUse" x="0" y="0" width="84" height="84">
<path d="M0 7.62939e-06H84V84H0V7.62939e-06Z" fill="white"/>
</mask>
<g mask="url(#mask0_1240_12021)">
<path d="M32.1116 58.8633C32.1116 59.7692 31.3771 60.5039 30.4709 60.5039C29.565 60.5039 28.8303 59.7692 28.8303 58.8633C28.8303 57.9572 29.565 57.2227 30.4709 57.2227C31.3771 57.2227 32.1116 57.9572 32.1116 58.8633Z" fill="#24E9FF"/>
<path d="M38.1353 60.5117C38.1353 61.4178 37.4007 62.1523 36.4946 62.1523C35.5885 62.1523 34.854 61.4178 34.854 60.5117C34.854 59.6056 35.5885 58.8711 36.4946 58.8711C37.4007 58.8711 38.1353 59.6056 38.1353 60.5117Z" fill="#24E9FF"/>
<path d="M14.1423 58.8633C14.1423 59.7692 14.8768 60.5039 15.783 60.5039C16.6891 60.5039 17.4236 59.7692 17.4236 58.8633C17.4236 57.9572 16.6891 57.2227 15.783 57.2227C14.8768 57.2227 14.1423 57.9572 14.1423 58.8633Z" fill="#24E9FF"/>
<path d="M8.11865 60.5117C8.11865 61.4178 8.85316 62.1523 9.75928 62.1523C10.6654 62.1523 11.3999 61.4178 11.3999 60.5117C11.3999 59.6056 10.6654 58.8711 9.75928 58.8711C8.85316 58.8711 8.11865 59.6056 8.11865 60.5117Z" fill="#24E9FF"/>
<path d="M78.6316 32.8605C79.2436 33.5287 79.1983 34.5664 78.5302 35.1785C77.8622 35.7905 76.8241 35.7452 76.2122 35.077C75.6001 34.4089 75.6455 33.371 76.3137 32.7589C76.9818 32.147 78.0197 32.1924 78.6316 32.8605Z" fill="#24E9FF"/>
<path d="M44.6175 58.351C44.0993 62.9339 39.5063 66.5195 33.9181 66.5195C32.4739 66.5195 31.0959 66.2792 29.8385 65.8441C28.1031 65.2469 26.5945 64.2765 25.4541 63.054C25.1434 62.7216 24.8604 62.3706 24.6069 62.0031C23.6923 60.6733 23.1701 59.1313 23.1701 57.4856L23.1689 57.4861C23.1689 59.5862 22.3163 61.5196 20.8838 63.0545C18.9164 65.1636 15.8558 66.519 12.4199 66.519C6.84124 66.519 2.25405 62.9477 1.72266 58.3758" stroke="#24E9FF" stroke-width="5.03906" stroke-miterlimit="10" stroke-linecap="round" stroke-linejoin="round"/>
<path d="M5.7334 43.2383C5.7334 40.9225 7.61077 39.0452 9.92651 39.0452C12.2422 39.0452 14.1196 40.9225 14.1196 43.2383" stroke="#24E9FF" stroke-width="5.03906" stroke-miterlimit="10" stroke-linecap="round" stroke-linejoin="round"/>
<path d="M40.6072 43.2383C40.6072 40.9225 38.73 39.0452 36.4141 39.0452C34.0983 39.0452 32.2209 40.9225 32.2209 43.2383" stroke="#24E9FF" stroke-width="5.03906" stroke-miterlimit="10" stroke-linecap="round" stroke-linejoin="round"/>
<path d="M16.281 66.2583V71.3622C16.281 75.1658 19.3652 78.25 23.17 78.25C26.3118 78.25 28.9622 76.1474 29.7897 73.2738C29.9658 72.6661 30.059 72.0251 30.059 71.3622V66.2641" stroke="#24E9FF" stroke-width="5.03906" stroke-miterlimit="10" stroke-linecap="round" stroke-linejoin="round"/>
<path d="M23.1697 60.8254V69.9062" stroke="#24E9FF" stroke-width="5.03906" stroke-miterlimit="10" stroke-linecap="round" stroke-linejoin="round"/>
<path d="M20.8301 55.8642L18.7403 52.2444C17.7004 50.4434 19.0001 48.1924 21.0796 48.1924H25.2594C27.3388 48.1924 28.6385 50.4434 27.5988 52.2444L25.509 55.8642C24.4691 57.6651 21.8697 57.6651 20.8301 55.8642Z" stroke="#24E9FF" stroke-width="5.03906" stroke-miterlimit="10" stroke-linecap="round" stroke-linejoin="round"/>
<path d="M65.4842 16.0423C63.4817 14.0396 60.2347 14.0396 58.232 16.0423C56.2293 18.045 56.2293 21.2919 58.232 23.2947L65.4842 30.5469L72.7364 23.2947C74.7392 21.2919 74.7392 18.045 72.7364 16.0423C70.7339 14.0396 67.4869 14.0396 65.4842 16.0423Z" stroke="#24E9FF" stroke-width="5.03906" stroke-miterlimit="10" stroke-linecap="round" stroke-linejoin="round"/>
<path d="M81.159 28.5808C81.8813 26.7071 82.2771 24.671 82.2771 22.5427C82.2771 13.2682 74.7586 5.74956 65.484 5.74956C56.2096 5.74956 48.6909 13.2682 48.6909 22.5427C48.6909 26.1433 49.8246 29.4791 51.754 32.2132L48.6909 39.0429L56.7456 36.8855C59.2913 38.4398 62.283 39.3359 65.484 39.3359C67.698 39.3359 69.812 38.9074 71.7474 38.1289" stroke="#24E9FF" stroke-width="5.03906" stroke-miterlimit="10" stroke-linecap="round" stroke-linejoin="round"/>
</g>
</g>
<defs>
<clipPath id="clip0_1240_12021">
<rect width="84" height="84" fill="white"/>
</clipPath>
</defs>
</svg>
