<svg width="18" height="18" viewBox="0 0 18 18" fill="none" xmlns="http://www.w3.org/2000/svg">
<path d="M16.8016 18.5706C17.279 18.5706 17.7368 18.3598 18.0744 17.9848C18.4119 17.6097 18.6016 17.101 18.6016 16.5706V11.6866C18.6016 11.1561 18.4119 10.6474 18.0744 10.2723C17.7368 9.89727 17.279 9.68656 16.8016 9.68656H14.3032C14.3032 8.98456 14.341 8.28056 14.4148 7.57856C14.5264 6.83456 14.7136 6.17256 14.9728 5.59456C15.2338 5.01456 15.5686 4.56056 15.979 4.22856C16.3876 3.85656 16.9078 3.67056 17.5414 3.67056V0.570557C16.4992 0.570557 15.5884 0.818557 14.8054 1.31456C14.0293 1.80553 13.3619 2.48346 12.8525 3.29856C12.3411 4.19719 11.9643 5.18195 11.7365 6.21456C11.507 7.35408 11.3946 8.51887 11.4017 9.68656V16.5706C11.4017 17.101 11.5913 17.6097 11.9289 17.9848C12.2664 18.3598 12.7243 18.5706 13.2017 18.5706H16.8016ZM6.00178 18.5706C6.47916 18.5706 6.93699 18.3598 7.27455 17.9848C7.61211 17.6097 7.80175 17.101 7.80175 16.5706V11.6866C7.80175 11.1561 7.61211 10.6474 7.27455 10.2723C6.93699 9.89727 6.47916 9.68656 6.00178 9.68656H3.50342C3.50342 8.98456 3.54122 8.28056 3.61502 7.57856C3.72662 6.83456 3.91382 6.17256 4.17301 5.59456C4.43401 5.01456 4.7688 4.56056 5.1792 4.22856C5.58779 3.85656 6.10798 3.67056 6.74157 3.67056V0.570557C5.69939 0.570557 4.7886 0.818557 4.00561 1.31456C3.22944 1.80553 2.56212 2.48346 2.05265 3.29856C1.54132 4.19719 1.16444 5.18195 0.936669 6.21456C0.707147 7.35408 0.59483 8.51887 0.601874 9.68656V16.5706C0.601874 17.101 0.791513 17.6097 1.12907 17.9848C1.46663 18.3598 1.92446 18.5706 2.40184 18.5706H6.00178Z" fill="#FF5B2E"/>
</svg>
