<svg width="92" height="91" viewBox="0 0 92 91" fill="none" xmlns="http://www.w3.org/2000/svg">
<path d="M67.0132 44.7344C63.0062 46.9666 60.4479 50.9971 59.9789 55.3894" stroke="white" stroke-width="1.39847" stroke-miterlimit="10" stroke-linecap="round" stroke-linejoin="round"/>
<path d="M64.3875 67.0733C68.1434 70.5216 73.6661 71.7631 78.7506 69.8147C85.9084 67.0717 89.4873 59.0456 86.7443 51.8877C84.5419 46.1406 78.9336 42.7008 73.1034 42.9879" stroke="white" stroke-width="1.39847" stroke-miterlimit="10" stroke-linecap="round" stroke-linejoin="round"/>
<path d="M23.3987 54.5651L27.4695 69.4055L26.2309 84.9562C26.0821 86.824 27.4757 88.4589 29.3435 88.6076C29.8646 88.6492 30.3674 88.5706 30.825 88.3952C32.0076 87.942 32.8875 86.8417 32.9949 85.4951L34.2795 69.3693C34.3098 68.9886 34.2756 68.6055 34.1782 68.2362L31.6267 58.5438L39.0099 66.5257L45.2276 79.4908C45.9973 81.0956 47.8641 81.8193 49.4974 81.1933C49.5835 81.1603 49.6691 81.1234 49.7539 81.0828C51.4433 80.2726 52.1562 78.2461 51.346 76.5565L44.9071 63.1302C44.7604 62.8245 44.5688 62.5424 44.3384 62.2934L33.3084 50.7674" stroke="white" stroke-width="1.39847" stroke-miterlimit="10" stroke-linecap="round" stroke-linejoin="round"/>
<path d="M19.8849 45.3975L19.3253 55.9443C19.2788 57.1787 18.4904 58.2102 17.4055 58.6261C17.0396 58.7664 16.6399 58.8366 16.2234 58.8208C14.5725 58.7586 13.2846 57.3698 13.3468 55.7189L13.7714 44.4615C13.7945 43.8515 14.0035 43.2631 14.3706 42.7754L18.8688 36.2337" stroke="white" stroke-width="1.39847" stroke-miterlimit="10" stroke-linecap="round" stroke-linejoin="round"/>
<path d="M21.9997 34.2802C24.7721 33.2178 26.1583 30.109 25.0959 27.3366C24.0335 24.5641 20.9247 23.1779 18.1523 24.2404C15.3798 25.3028 13.9936 28.4116 15.056 31.184C16.1185 33.9564 19.2272 35.3427 21.9997 34.2802Z" stroke="white" stroke-width="1.39847" stroke-miterlimit="10" stroke-linecap="round" stroke-linejoin="round"/>
<path d="M75.9695 34.5485C77.7034 32.7262 77.9702 28.1328 75.3749 26.097" stroke="white" stroke-width="1.39847" stroke-miterlimit="10" stroke-linecap="round" stroke-linejoin="round"/>
<path d="M54.7222 34.2617L65.656 38.6121" stroke="white" stroke-width="1.39847" stroke-miterlimit="10" stroke-linecap="round" stroke-linejoin="round"/>
<path d="M60.2583 16.687L59.6484 16.3295C58.0198 15.3748 56.0067 15.2352 54.3134 16.07C53.4462 16.4977 52.423 16.4601 51.5902 15.9718C50.9949 15.6229 50.2294 15.8225 49.8806 16.4178L49.2267 17.533C48.3123 19.0929 48.8356 21.0989 50.3955 22.0133L52.6218 23.3184C53.3219 23.7288 53.7687 24.4635 53.8113 25.2738C53.914 27.2307 52.2152 28.8222 50.2746 28.5503C49.5358 28.4468 48.8019 28.2968 48.0773 28.1006C47.284 27.8856 46.4611 27.6627 45.6758 27.4498C43.7503 26.9279 41.9621 28.6444 42.405 30.5952L42.4206 30.6642C42.6095 31.4964 43.2085 32.1753 44.0107 32.4661L46.2548 33.2787C48.7397 34.1786 55.2182 34.9337 58.4517 33.4929" stroke="white" stroke-width="1.39847" stroke-miterlimit="10" stroke-linecap="round" stroke-linejoin="round"/>
<path d="M57.5074 25.3547C56.1484 24.5581 55.6926 22.8107 56.4892 21.4517L59.6066 16.307L60.9365 17.0865C62.9199 18.2493 63.5852 20.7997 62.4226 22.7831L61.6323 24.1311C60.8357 25.4899 58.8664 26.1513 57.5074 25.3547Z" stroke="white" stroke-width="1.39847" stroke-miterlimit="10" stroke-linecap="round" stroke-linejoin="round"/>
<path d="M61.6325 24.1295L73.2325 30.8865C75.8596 32.4169 76.8013 35.7536 75.3621 38.4317C74.9739 39.1541 74.4326 39.7834 73.7763 40.2752C72.8954 40.9354 72.5595 42.0998 72.9535 43.1278L74.1398 46.2235C74.6386 47.525 73.9878 48.9845 72.6862 49.4832C71.6133 49.8944 70.398 49.5289 69.7298 48.594L67.9223 46.0649C66.0135 43.394 65.3824 40.0164 66.1981 36.8365" stroke="white" stroke-width="1.39847" stroke-miterlimit="10" stroke-linecap="round" stroke-linejoin="round"/>
<path d="M25.7464 44.0574L31.8366 46.0796C32.5885 46.3292 33.3891 46.2661 34.0746 45.9371C34.4521 45.756 34.7947 45.494 35.0745 45.1591L41.2287 37.8058C42.2882 36.5383 42.1197 34.6517 40.8521 33.5921C39.5846 32.5325 37.6981 32.701 36.6385 33.9687L31.79 39.7599L26.5552 35.2926C25.1382 34.1955 23.1993 33.8428 21.4036 34.5309C18.6671 35.5796 17.2988 38.648 18.3475 41.3845L23.3989 54.5661L33.3087 50.7686L31.5019 46.0538" stroke="white" stroke-width="1.39847" stroke-miterlimit="10" stroke-linecap="round" stroke-linejoin="round"/>
</svg>
