<svg width="95" height="95" viewBox="0 0 95 95" fill="none" xmlns="http://www.w3.org/2000/svg">
<g opacity="0.24" clip-path="url(#clip0_127_4683)">
<path d="M67.0128 44.7378C63.0059 46.9701 60.4475 51.0006 59.9786 55.3928" stroke="#FF5B2E" stroke-width="1.39847" stroke-miterlimit="10" stroke-linecap="round" stroke-linejoin="round"/>
<path d="M64.3871 67.0748C68.143 70.523 73.6657 71.7646 78.7503 69.8161C85.908 67.0732 89.4869 59.0471 86.7439 51.8892C84.5415 46.1421 78.9332 42.7022 73.103 42.9894" stroke="#FF5B2E" stroke-width="1.39847" stroke-miterlimit="10" stroke-linecap="round" stroke-linejoin="round"/>
<path d="M23.3986 54.5666L27.4694 69.407L26.2308 84.9577C26.082 86.8254 27.4756 88.4603 29.3434 88.6091C29.8645 88.6506 30.3673 88.572 30.8249 88.3967C32.0075 87.9435 32.8874 86.8432 32.9948 85.4965L34.2793 69.3708C34.3097 68.9901 34.2755 68.607 34.1781 68.2377L31.6266 58.5453L39.0098 66.5272L45.2275 79.4923C45.9972 81.0971 47.864 81.8208 49.4973 81.1947C49.5834 81.1617 49.669 81.1248 49.7537 81.0842C51.4432 80.2741 52.1561 78.2475 51.3458 76.558L44.9069 63.1316C44.7603 62.8259 44.5687 62.5439 44.3383 62.2949L33.3083 50.7689" stroke="#FF5B2E" stroke-width="1.39847" stroke-miterlimit="10" stroke-linecap="round" stroke-linejoin="round"/>
<path d="M19.8848 45.3971L19.3252 55.9438C19.2787 57.1782 18.4903 58.2097 17.4054 58.6256C17.0394 58.7659 16.6397 58.8362 16.2232 58.8203C14.5723 58.7581 13.2845 57.3693 13.3467 55.7184L13.7713 44.461C13.7944 43.851 14.0034 43.2626 14.3705 42.7749L18.8687 36.2332" stroke="#FF5B2E" stroke-width="1.39847" stroke-miterlimit="10" stroke-linecap="round" stroke-linejoin="round"/>
<path d="M21.9996 34.2802C24.772 33.2178 26.1582 30.109 25.0958 27.3366C24.0333 24.5641 20.9246 23.1779 18.1521 24.2404C15.3797 25.3028 13.9935 28.4116 15.0559 31.184C16.1183 33.9564 19.2271 35.3427 21.9996 34.2802Z" stroke="#FF5B2E" stroke-width="1.39847" stroke-miterlimit="10" stroke-linecap="round" stroke-linejoin="round"/>
<path d="M75.9695 34.5495C77.7034 32.7272 77.9702 28.1338 75.3749 26.0979" stroke="#FF5B2E" stroke-width="1.39847" stroke-miterlimit="10" stroke-linecap="round" stroke-linejoin="round"/>
<path d="M54.7223 34.2632L65.6561 38.6135" stroke="#FF5B2E" stroke-width="1.39847" stroke-miterlimit="10" stroke-linecap="round" stroke-linejoin="round"/>
<path d="M60.2582 16.689L59.6483 16.3315C58.0197 15.3768 56.0066 15.2371 54.3133 16.072C53.4461 16.4996 52.4229 16.4621 51.59 15.9738C50.9948 15.6249 50.2293 15.8245 49.8804 16.4197L49.2266 17.535C48.3122 19.0949 48.8355 21.1008 50.3954 22.0153L52.6217 23.3204C53.3217 23.7308 53.7686 24.4654 53.8112 25.2758C53.9139 27.2327 52.2151 28.8241 50.2745 28.5522C49.5357 28.4488 48.8018 28.2988 48.0772 28.1025C47.2839 27.8875 46.461 27.6647 45.6757 27.4518C43.7501 26.9299 41.962 28.6464 42.4048 30.5972L42.4204 30.6662C42.6094 31.4983 43.2084 32.1773 44.0106 32.4681L46.2547 33.2807C48.7396 34.1805 55.2181 34.9356 58.4515 33.4948" stroke="#FF5B2E" stroke-width="1.39847" stroke-miterlimit="10" stroke-linecap="round" stroke-linejoin="round"/>
<path d="M57.5075 25.3547C56.1485 24.5581 55.6927 22.8107 56.4893 21.4517L59.6067 16.307L60.9366 17.0865C62.92 18.2493 63.5853 20.7997 62.4227 22.7831L61.6324 24.1311C60.8357 25.4899 58.8665 26.1513 57.5075 25.3547Z" stroke="#FF5B2E" stroke-width="1.39847" stroke-miterlimit="10" stroke-linecap="round" stroke-linejoin="round"/>
<path d="M61.6325 24.1315L73.2325 30.8885C75.8596 32.4188 76.8014 35.7556 75.3621 38.4336C74.9739 39.1561 74.4327 39.7853 73.7763 40.2772C72.8954 40.9374 72.5596 42.1018 72.9535 43.1297L74.1398 46.2254C74.6386 47.527 73.9878 48.9864 72.6863 49.4852C71.6133 49.8964 70.398 49.5309 69.7298 48.596L67.9223 46.0669C66.0135 43.396 65.3824 40.0183 66.1981 36.8384" stroke="#FF5B2E" stroke-width="1.39847" stroke-miterlimit="10" stroke-linecap="round" stroke-linejoin="round"/>
<path d="M25.746 44.0579L31.8361 46.0801C32.5881 46.3297 33.3887 46.2666 34.0742 45.9376C34.4517 45.7565 34.7942 45.4945 35.074 45.1596L41.2283 37.8063C42.2878 36.5388 42.1192 34.6522 40.8517 33.5926C39.5842 32.533 37.6977 32.7015 36.6381 33.9692L31.7896 39.7604L26.5548 35.2931C25.1378 34.1959 23.1989 33.8433 21.4031 34.5314C18.6666 35.5801 17.2984 38.6485 18.3471 41.385L23.3984 54.5666L33.3082 50.769L31.5015 46.0543" stroke="#FF5B2E" stroke-width="1.39847" stroke-miterlimit="10" stroke-linecap="round" stroke-linejoin="round"/>
</g>
<defs>
<clipPath id="clip0_127_4683">
<rect width="73" height="73" fill="white" transform="translate(0.356201 26.478) rotate(-20.9675)"/>
</clipPath>
</defs>
</svg>
